<svg xmlns="http://www.w3.org/2000/svg" xmlns:xlink="http://www.w3.org/1999/xlink" viewBox="0 0 1425 488.46"><defs><style>.cls-1{fill:none;}.cls-2{clip-path:url(#clippath);}.cls-3{opacity:.05;}.cls-4{opacity:.07;}.cls-5{opacity:.06;}.cls-6{opacity:.1;}.cls-7{fill:#050a0f;}.cls-8{fill:#eeeef9;}.cls-9,.cls-10,.cls-11,.cls-12,.cls-13{fill:#fff;}.cls-14{fill:#9993a8;}.cls-15{fill:#332322;}.cls-16{fill:#305e7d;}.cls-17{fill:#c0c7c8;}.cls-18{fill:#c0d6d9;}.cls-19{fill:#dc5144;}.cls-20{fill:#ccc;}.cls-21{fill:#d29272;}.cls-22{fill:#acb3b4;}.cls-23{fill:#143752;}.cls-24{fill:#20234c;}.cls-25{fill:#3eafe1;}.cls-26{fill:#413c61;}.cls-27{fill:#0f2336;}.cls-28{fill:#1d1d1b;}.cls-29{fill:#1d4a6d;}.cls-30{fill:#957054;}.cls-31{fill:#283272;}.cls-32{fill:#2b2b2b;}.cls-33{fill:#5d8092;}.cls-34{fill:#4d6773;}.cls-35{fill:#274661;}.cls-10,.cls-36{mix-blend-mode:overlay;}.cls-37{fill:url(#New_Gradient_Swatch_1);}.cls-38{fill:url(#linear-gradient-3);}.cls-39{fill:url(#linear-gradient-4);}.cls-40{fill:url(#linear-gradient-2);}.cls-41{fill:url(#linear-gradient-6);}.cls-42{fill:url(#linear-gradient-7);}.cls-43{fill:url(#linear-gradient-5);}.cls-44{opacity:.15;}.cls-45,.cls-13{opacity:.4;}.cls-46{opacity:.8;}.cls-47,.cls-11{opacity:.7;}.cls-48{isolation:isolate;}.cls-49{fill:url(#New_Gradient_Swatch_1-2);}.cls-50{fill:url(#New_Gradient_Swatch_1-3);}.cls-36{fill:url(#linear-gradient);}.cls-12{opacity:.3;}</style><clipPath id="clippath"><rect class="cls-1" width="1425" height="488.46"></rect></clipPath><linearGradient id="linear-gradient" x1="-72.36" y1="226.03" x2="738.04" y2="226.03" gradientUnits="userSpaceOnUse"><stop offset=".52" stop-color="#fff" stop-opacity="0"></stop><stop offset="1" stop-color="#fff"></stop></linearGradient><linearGradient id="New_Gradient_Swatch_1" x1="907.46" y1="418.78" x2="973.39" y2="418.78" gradientUnits="userSpaceOnUse"><stop offset=".41" stop-color="#3ca7da"></stop><stop offset=".59" stop-color="#3ba4d7"></stop><stop offset=".69" stop-color="#3a9cd0"></stop><stop offset=".78" stop-color="#378ec4"></stop><stop offset=".85" stop-color="#347ab2"></stop><stop offset=".91" stop-color="#30619c"></stop><stop offset=".97" stop-color="#2a4280"></stop><stop offset="1" stop-color="#283272"></stop></linearGradient><linearGradient id="linear-gradient-2" x1="1023.89" y1="381.92" x2="1093.65" y2="333.97" gradientUnits="userSpaceOnUse"><stop offset="0" stop-color="#3ca7da"></stop><stop offset="1" stop-color="#283272"></stop></linearGradient><linearGradient id="New_Gradient_Swatch_1-2" x1="1114.84" y1="230.45" x2="1326.65" y2="230.45" xlink:href="#New_Gradient_Swatch_1"></linearGradient><linearGradient id="New_Gradient_Swatch_1-3" x1="628.48" y1="230.45" x2="832.14" y2="230.45" xlink:href="#New_Gradient_Swatch_1"></linearGradient><linearGradient id="linear-gradient-3" x1="858.7" y1="102.39" x2="903.06" y2="59.71" xlink:href="#linear-gradient-2"></linearGradient><linearGradient id="linear-gradient-4" x1="986.49" y1="84.68" x2="1068.39" y2="38.01" xlink:href="#linear-gradient-2"></linearGradient><linearGradient id="linear-gradient-5" x1="990.66" y1="92.01" x2="1072.57" y2="45.33" xlink:href="#linear-gradient-2"></linearGradient><linearGradient id="linear-gradient-6" x1="937.55" y1="65.16" x2="968.07" y2="29.75" xlink:href="#linear-gradient-2"></linearGradient><linearGradient id="linear-gradient-7" x1="982.35" y1="199.63" x2="1037.42" y2="139.14" xlink:href="#linear-gradient-2"></linearGradient></defs><g class="cls-48"><g id="Layer_2"><g id="Layer_3"><g id="Hero-illus"><g class="cls-2"><path class="cls-36" d="m630.18,224.98c-.71,0-1.34.47-1.53,1.16l-8.3,29.7-5.93-55.19c-.09-.8-.75-1.41-1.55-1.42-.83,0-1.49.57-1.6,1.37l-14.87,106.27-14.4-176.25c-.07-.8-.71-1.42-1.51-1.46-.85-.06-1.5.52-1.64,1.3l-23.41,129.91-9.73-53.51c-.12-.68-.67-1.2-1.36-1.29-.7-.08-1.35.28-1.64.9l-8.7,18.49h-80.91c-.71,0-1.34.47-1.53,1.16l-8.3,29.7-5.93-55.19c-.09-.8-.75-1.41-1.55-1.42-.82,0-1.49.57-1.6,1.37l-14.87,106.27-14.4-176.25c-.07-.8-.71-1.42-1.51-1.46-.77-.04-1.5.52-1.64,1.3l-23.41,129.91-9.73-53.51c-.12-.68-.67-1.2-1.36-1.29-.7-.08-1.35.28-1.64.9l-8.7,18.49h-80.91c-.71,0-1.34.47-1.53,1.16l-8.3,29.7-5.93-55.19c-.08-.8-.75-1.41-1.55-1.42-.81,0-1.49.57-1.6,1.37l-14.88,106.27-14.4-176.25c-.07-.8-.71-1.42-1.51-1.46-.81-.06-1.5.52-1.64,1.3l-23.41,129.91-9.73-53.51c-.12-.68-.67-1.2-1.36-1.29-.7-.08-1.35.28-1.64.9l-8.7,18.49h-80.91c-.71,0-1.34.47-1.53,1.16l-8.3,29.7-5.93-55.19c-.09-.8-.75-1.41-1.55-1.42-.79,0-1.49.57-1.6,1.37l-14.87,106.27-14.4-176.25c-.07-.8-.71-1.42-1.51-1.46-.76-.04-1.5.52-1.64,1.3l-23.41,129.91-9.73-53.51c-.12-.68-.67-1.2-1.36-1.29-.69-.08-1.35.28-1.64.9l-8.7,18.49h-72.99l-2.14,3.18H3.78c.62,0,1.17-.36,1.44-.91l7.01-14.92,10.42,57.26c.14.76.8,1.3,1.56,1.3.77,0,1.43-.55,1.56-1.31l22.82-126.58,14.58,178.43c.07.81.73,1.43,1.54,1.46.77.1,1.5-.56,1.62-1.37l15.08-107.76,5.44,50.64c.08.76.69,1.35,1.45,1.41.74.05,1.45-.42,1.66-1.16l10.2-36.5h80.71c.62,0,1.17-.36,1.44-.91l7.01-14.92,10.42,57.26c.14.76.8,1.3,1.56,1.3.77,0,1.43-.55,1.56-1.31l22.81-126.58,14.58,178.43c.07.81.73,1.43,1.54,1.46.72.1,1.51-.56,1.62-1.37l15.08-107.76,5.44,50.64c.08.76.69,1.35,1.45,1.41.74.05,1.45-.42,1.66-1.16l10.2-36.5h80.71c.62,0,1.17-.36,1.44-.91l7.02-14.92,10.41,57.26c.14.76.8,1.3,1.56,1.3.77,0,1.43-.55,1.56-1.31l22.82-126.58,14.58,178.42c.07.81.73,1.43,1.54,1.46.8.07,1.51-.57,1.62-1.37l15.08-107.76,5.44,50.64c.08.76.69,1.35,1.45,1.41.75.05,1.45-.42,1.66-1.16l10.2-36.5h80.71c.62,0,1.17-.36,1.44-.91l7.02-14.92,10.42,57.26c.14.76.8,1.3,1.56,1.3.77,0,1.43-.55,1.56-1.31l22.82-126.58,14.58,178.43c.07.81.73,1.43,1.54,1.46.01,0,.03,0,.05,0,.79,0,1.46-.58,1.57-1.37l15.08-107.76,5.44,50.64c.08.76.69,1.35,1.45,1.41.75.05,1.45-.42,1.66-1.16l10.2-36.5h106.65v-3.18h-107.86Z"></path><path class="cls-10" d="m1966.12,224.98c-.71,0-1.34.47-1.53,1.16l-8.3,29.7-5.93-55.19c-.09-.8-.75-1.41-1.55-1.42-.83,0-1.49.57-1.6,1.37l-14.87,106.27-14.4-176.25c-.07-.8-.71-1.42-1.51-1.46-.85-.06-1.5.52-1.64,1.3l-23.41,129.91-9.73-53.51c-.12-.68-.67-1.2-1.36-1.29-.7-.08-1.35.28-1.64.9l-8.7,18.49h-80.91c-.71,0-1.34.47-1.53,1.16l-8.3,29.7-5.93-55.19c-.09-.8-.75-1.41-1.55-1.42-.82,0-1.49.57-1.6,1.37l-14.87,106.27-14.4-176.25c-.07-.8-.71-1.42-1.51-1.46-.77-.04-1.5.52-1.64,1.3l-23.41,129.91-9.73-53.51c-.12-.68-.67-1.2-1.36-1.29-.7-.08-1.35.28-1.64.9l-8.7,18.49h-80.91c-.71,0-1.34.47-1.53,1.16l-8.3,29.7-5.93-55.19c-.08-.8-.75-1.41-1.55-1.42-.81,0-1.49.57-1.6,1.37l-14.88,106.27-14.4-176.25c-.07-.8-.71-1.42-1.51-1.46-.81-.06-1.5.52-1.64,1.3l-23.41,129.91-9.73-53.51c-.12-.68-.67-1.2-1.36-1.29-.7-.08-1.35.28-1.64.9l-8.7,18.49h-80.91c-.71,0-1.34.47-1.53,1.16l-8.3,29.7-5.93-55.19c-.09-.8-.75-1.41-1.55-1.42-.79,0-1.49.57-1.6,1.37l-14.87,106.27-14.4-176.25c-.07-.8-.71-1.42-1.51-1.46-.76-.04-1.5.52-1.64,1.3l-23.41,129.91-9.73-53.51c-.12-.68-.67-1.2-1.36-1.29-.69-.08-1.35.28-1.64.9l-8.7,18.49h-72.99l-2.14,3.18h76.14c.62,0,1.17-.36,1.44-.91l7.01-14.92,10.42,57.26c.14.76.8,1.3,1.56,1.3.77,0,1.43-.55,1.56-1.31l22.82-126.58,14.58,178.43c.07.81.73,1.43,1.54,1.46.77.1,1.5-.56,1.62-1.37l15.08-107.76,5.44,50.64c.08.76.69,1.35,1.45,1.41.74.05,1.45-.42,1.66-1.16l10.2-36.5h80.71c.62,0,1.17-.36,1.44-.91l7.01-14.92,10.42,57.26c.14.76.8,1.3,1.56,1.3.77,0,1.43-.55,1.56-1.31l22.81-126.58,14.58,178.43c.07.81.73,1.43,1.54,1.46.72.1,1.51-.56,1.62-1.37l15.08-107.76,5.44,50.64c.08.76.69,1.35,1.45,1.41.74.05,1.45-.42,1.66-1.16l10.2-36.5h80.71c.62,0,1.17-.36,1.44-.91l7.02-14.92,10.41,57.26c.14.76.8,1.3,1.56,1.3.77,0,1.43-.55,1.56-1.31l22.82-126.58,14.58,178.42c.07.81.73,1.43,1.54,1.46.8.07,1.51-.57,1.62-1.37l15.08-107.76,5.44,50.64c.08.76.69,1.35,1.45,1.41.75.05,1.45-.42,1.66-1.16l10.2-36.5h80.71c.62,0,1.17-.36,1.44-.91l7.02-14.92,10.42,57.26c.14.76.8,1.3,1.56,1.3.77,0,1.43-.55,1.56-1.31l22.82-126.58,14.58,178.43c.07.81.73,1.43,1.54,1.46.01,0,.03,0,.05,0,.79,0,1.46-.58,1.57-1.37l15.08-107.76,5.44,50.64c.08.76.69,1.35,1.45,1.41.75.05,1.45-.42,1.66-1.16l10.2-36.5h106.65v-3.18h-107.86Z"></path></g><g><g class="cls-45"><path class="cls-9" d="m894.1,274.38c-.85,0-1.55-.69-1.55-1.54s.68-1.54,1.53-1.54h.01c.85,0,1.54.69,1.54,1.54s-.69,1.54-1.54,1.54Z"></path><path class="cls-9" d="m887.25,274.38c-.85,0-1.55-.69-1.55-1.54s.68-1.54,1.53-1.54h.01c.85,0,1.54.69,1.54,1.54s-.69,1.54-1.54,1.54Z"></path><path class="cls-9" d="m880.41,274.38c-.85,0-1.55-.69-1.55-1.54s.68-1.54,1.53-1.54h.01c.85,0,1.54.69,1.54,1.54s-.69,1.54-1.54,1.54Z"></path><path class="cls-9" d="m873.56,274.38c-.85,0-1.55-.69-1.55-1.54s.68-1.54,1.53-1.54h.01c.85,0,1.54.69,1.54,1.54s-.69,1.54-1.54,1.54Z"></path><path class="cls-9" d="m972.05,274.38h-.03c-.85,0-1.54-.69-1.54-1.54s.69-1.54,1.54-1.54h.03c.85,0,1.54.69,1.54,1.54s-.69,1.54-1.54,1.54Zm-6.5,0h-.03c-.85,0-1.54-.69-1.54-1.54s.69-1.54,1.54-1.54h.03c.85,0,1.54.69,1.54,1.54s-.69,1.54-1.54,1.54Zm-6.5,0h-.03c-.85,0-1.54-.69-1.54-1.54s.69-1.54,1.54-1.54h.03c.85,0,1.54.69,1.54,1.54s-.69,1.54-1.54,1.54Zm-6.5,0h-.03c-.85,0-1.54-.69-1.54-1.54s.69-1.54,1.54-1.54h.03c.85,0,1.54.69,1.54,1.54s-.69,1.54-1.54,1.54Zm-6.5,0h-.03c-.85,0-1.54-.69-1.54-1.54s.69-1.54,1.54-1.54h.03c.85,0,1.54.69,1.54,1.54s-.69,1.54-1.54,1.54Zm-6.5,0h-.03c-.85,0-1.54-.69-1.54-1.54s.69-1.54,1.54-1.54h.03c.85,0,1.54.69,1.54,1.54s-.69,1.54-1.54,1.54Zm-6.5,0h-.03c-.85,0-1.54-.69-1.54-1.54s.69-1.54,1.54-1.54h.03c.85,0,1.54.69,1.54,1.54s-.69,1.54-1.54,1.54Zm-6.5,0h-.03c-.85,0-1.54-.69-1.54-1.54s.69-1.54,1.54-1.54h.03c.85,0,1.54.69,1.54,1.54s-.69,1.54-1.54,1.54Zm-6.5,0h-.03c-.85,0-1.54-.69-1.54-1.54s.69-1.54,1.54-1.54h.03c.85,0,1.54.69,1.54,1.54s-.69,1.54-1.54,1.54Zm-6.5,0h-.03c-.85,0-1.54-.69-1.54-1.54s.69-1.54,1.54-1.54h.03c.85,0,1.54.69,1.54,1.54s-.69,1.54-1.54,1.54Zm-6.5,0h-.03c-.85,0-1.54-.69-1.54-1.54s.69-1.54,1.54-1.54h.03c.85,0,1.54.69,1.54,1.54s-.69,1.54-1.54,1.54Zm-6.5,0h-.03c-.85,0-1.54-.69-1.54-1.54s.69-1.54,1.54-1.54h.03c.85,0,1.54.69,1.54,1.54s-.69,1.54-1.54,1.54Z"></path><path class="cls-9" d="m978.53,274.38c-.85,0-1.55-.69-1.55-1.54,0-.63.37-1.17.91-1.41.19-.09.41-.14.63-.14.85,0,1.54.68,1.54,1.53s-.69,1.55-1.54,1.55Z"></path><path class="cls-9" d="m978.53,268.53c-.85,0-1.54-.68-1.54-1.53v-.02c0-.85.69-1.54,1.54-1.54s1.54.69,1.54,1.54-.69,1.55-1.54,1.55Zm0-5.85c-.85,0-1.54-.68-1.54-1.53v-.02c0-.85.69-1.54,1.54-1.54s1.54.69,1.54,1.54-.69,1.55-1.54,1.55Zm0-5.85c-.85,0-1.54-.68-1.54-1.53v-.02c0-.85.69-1.54,1.54-1.54s1.54.69,1.54,1.54-.69,1.55-1.54,1.55Z"></path><path class="cls-9" d="m978.53,250.99c-.85,0-1.54-.68-1.54-1.53h0c0-.86.69-1.55,1.54-1.55s1.54.69,1.54,1.54-.69,1.55-1.54,1.55Z"></path><path class="cls-9" d="m978.53,245.59c-.85,0-1.54-.68-1.54-1.53h0c0-.86.69-1.55,1.54-1.55s1.54.69,1.54,1.54-.69,1.55-1.54,1.55Z"></path><path class="cls-9" d="m978.53,240.19c-.85,0-1.54-.68-1.54-1.53h0c0-.86.69-1.55,1.54-1.55s1.54.69,1.54,1.54-.69,1.55-1.54,1.55Z"></path></g><g><circle class="cls-8" cx="927.91" cy="418.79" r="29.08" transform="translate(-71.83 226.64) rotate(-13.41)"></circle><g><path class="cls-31" d="m925.08,431.68h0s-5.08,0-5.08,0h0c-.25,0-.48-.14-.61-.34-.07-.11-.11-.24-.11-.39h0v-24.36c0-.4.32-.72.72-.72h5.09c.4,0,.72.32.72.72v24.36c0,.18-.07.35-.18.48-.13.15-.32.24-.54.24Z"></path><path class="cls-31" d="m942.58,431.68h0s-5.08,0-5.08,0h0c-.25,0-.48-.14-.61-.34-.07-.11-.11-.24-.11-.39h0v-24.36c0-.4.32-.72.72-.72h5.09c.4,0,.72.32.72.72v24.36c0,.18-.07.35-.18.48-.13.15-.32.24-.54.24Z"></path><path class="cls-37" d="m935.37,416.23h0v5.08h0c0,.25-.13.48-.33.61-.11.07-.24.11-.39.11h0s-24.36,0-24.36,0c-.4,0-.72-.32-.72-.72v-5.09c0-.4.32-.72.72-.72h24.36c.18,0,.35.07.48.18.15.13.24.32.24.54Z"></path></g></g><g><circle class="cls-8" cx="1049.65" cy="362.91" r="29.15" transform="translate(-55.03 248.25) rotate(-13.15)"></circle><path class="cls-40" d="m1066.39,344.98l-7.24,7.24-4.79.84s-.07.02-.11.04c-.03,0-.06.02-.09.03-.09.04-.18.09-.25.17l-11.5,11.5-.53-.53c-.33-.33-.86-.33-1.19,0-.33.33-.33.86,0,1.19l.53.53-3.51,3.51c-.16.16-.25.37-.25.59s.09.44.25.59l1.49,1.49-4.81,4.81-1.49-1.49c-.33-.33-.86-.33-1.19,0-.33.33-.33.86,0,1.19l4.16,4.16c.16.16.38.25.59.25s.43-.08.59-.25c.33-.33.33-.86,0-1.19l-1.49-1.49,4.81-4.81,1.49,1.49c.16.16.38.25.59.25s.43-.08.59-.25l3.51-3.51.52.52c.16.16.38.25.59.25s.43-.08.59-.25c.33-.33.33-.86,0-1.19l-.52-.52,3.1-3.1h0l-.6-.58-.6-.58h0s-1.33-1.28-1.33-1.28c-.33-.32-.34-.85-.02-1.19.32-.33.85-.34,1.19-.02l1.35,1.3h0s.6.58.6.58l.6.58h0l1.46-1.46h0l-.6-.58-.6-.58h0s-1.33-1.28-1.33-1.28c-.33-.32-.34-.85-.02-1.19.32-.33.85-.34,1.19-.02l1.35,1.3h0s.6.58.6.58l.6.58h0l1.46-1.46h0l-.6-.58-.6-.58h0s-1.33-1.28-1.33-1.28c-.33-.32-.34-.85-.02-1.19.32-.33.85-.34,1.19-.02l1.35,1.3h0s.6.58.6.58l.6.58h0l1.91-1.91c.07-.07.12-.16.16-.25,0,0,.01-.02.02-.03,0-.02,0-.04.01-.07.01-.04.03-.07.04-.11l.84-4.79,7.24-7.24c.33-.33.33-.86,0-1.19-.33-.33-.86-.33-1.19,0Zm-23.92,28.08l-1.49-1.49h0s0,0,0,0l-1.49-1.49,2.92-2.92,2.98,2.98-2.92,2.92Zm15.65-16.75l-1.88-1.88,2.28-.4-.4,2.28Z"></path></g><g class="cls-45"><path class="cls-9" d="m976.98,278.52c0-.85.69-1.55,1.54-1.55s1.54.68,1.54,1.53h0c0,.86-.69,1.55-1.54,1.55s-1.54-.69-1.54-1.54Z"></path><path class="cls-9" d="m976.98,356.47v-.03c0-.85.69-1.54,1.54-1.54s1.54.69,1.54,1.54v.03c0,.85-.69,1.54-1.54,1.54s-1.54-.69-1.54-1.54Zm0-6.5v-.03c0-.85.69-1.54,1.54-1.54s1.54.69,1.54,1.54v.03c0,.85-.69,1.54-1.54,1.54s-1.54-.69-1.54-1.54Zm0-6.5v-.03c0-.85.69-1.54,1.54-1.54s1.54.69,1.54,1.54v.03c0,.85-.69,1.54-1.54,1.54s-1.54-.69-1.54-1.54Zm0-6.5v-.03c0-.85.69-1.54,1.54-1.54s1.54.69,1.54,1.54v.03c0,.85-.69,1.54-1.54,1.54s-1.54-.69-1.54-1.54Zm0-6.5v-.03c0-.85.69-1.54,1.54-1.54s1.54.69,1.54,1.54v.03c0,.85-.69,1.54-1.54,1.54s-1.54-.69-1.54-1.54Zm0-6.5v-.03c0-.85.69-1.54,1.54-1.54s1.54.69,1.54,1.54v.03c0,.85-.69,1.54-1.54,1.54s-1.54-.69-1.54-1.54Zm0-6.5v-.03c0-.85.69-1.54,1.54-1.54s1.54.69,1.54,1.54v.03c0,.85-.69,1.54-1.54,1.54s-1.54-.69-1.54-1.54Zm0-6.5v-.03c0-.85.69-1.54,1.54-1.54s1.54.69,1.54,1.54v.03c0,.85-.69,1.54-1.54,1.54s-1.54-.69-1.54-1.54Zm0-6.5v-.03c0-.85.69-1.54,1.54-1.54s1.54.69,1.54,1.54v.03c0,.85-.69,1.54-1.54,1.54s-1.54-.69-1.54-1.54Zm0-6.5v-.03c0-.85.69-1.54,1.54-1.54s1.54.69,1.54,1.54v.03c0,.85-.69,1.54-1.54,1.54s-1.54-.69-1.54-1.54Zm0-6.5v-.03c0-.85.69-1.54,1.54-1.54s1.54.69,1.54,1.54v.03c0,.85-.69,1.54-1.54,1.54s-1.54-.69-1.54-1.54Zm0-6.5v-.03c0-.85.69-1.54,1.54-1.54s1.54.69,1.54,1.54v.03c0,.85-.69,1.54-1.54,1.54s-1.54-.69-1.54-1.54Z"></path><path class="cls-9" d="m976.98,362.95c0-.85.69-1.55,1.54-1.55.63,0,1.17.37,1.41.91.09.19.14.41.14.63,0,.85-.68,1.54-1.53,1.54s-1.55-.69-1.55-1.54Z"></path><path class="cls-9" d="m982.83,362.95c0-.85.68-1.54,1.53-1.54h.02c.85,0,1.54.69,1.54,1.54,0,.85-.69,1.54-1.54,1.54s-1.55-.69-1.55-1.54Zm5.85,0c0-.85.68-1.54,1.53-1.54h.02c.85,0,1.54.69,1.54,1.54,0,.85-.69,1.54-1.54,1.54s-1.55-.69-1.55-1.54Zm5.85,0c0-.85.68-1.54,1.53-1.54h.02c.85,0,1.54.69,1.54,1.54,0,.85-.69,1.54-1.54,1.54s-1.55-.69-1.55-1.54Z"></path><path class="cls-9" d="m1000.36,362.95c0-.85.68-1.54,1.53-1.54h.01c.85,0,1.54.69,1.54,1.54s-.69,1.54-1.54,1.54-1.55-.69-1.55-1.54Z"></path><path class="cls-9" d="m1005.77,362.95c0-.85.68-1.54,1.53-1.54h.01c.85,0,1.54.69,1.54,1.54s-.69,1.54-1.54,1.54-1.55-.69-1.55-1.54Z"></path><path class="cls-9" d="m1011.17,362.95c0-.85.68-1.54,1.53-1.54h.01c.85,0,1.54.69,1.54,1.54s-.69,1.54-1.54,1.54-1.55-.69-1.55-1.54Z"></path></g><g class="cls-45"><path class="cls-9" d="m932.94,361.37h.03c.85,0,1.54.69,1.54,1.54,0,.85-.69,1.54-1.54,1.54h-.03c-.85,0-1.54-.69-1.54-1.54,0-.85.69-1.54,1.54-1.54Zm6.5,0h.03c.85,0,1.54.69,1.54,1.54,0,.85-.69,1.54-1.54,1.54h-.03c-.85,0-1.54-.69-1.54-1.54,0-.85.69-1.54,1.54-1.54Zm6.5,0h.03c.85,0,1.54.69,1.54,1.54,0,.85-.69,1.54-1.54,1.54h-.03c-.85,0-1.54-.69-1.54-1.54s.69-1.54,1.54-1.54Zm6.5,0h.03c.85,0,1.54.69,1.54,1.54,0,.85-.69,1.54-1.54,1.54h-.03c-.85,0-1.54-.69-1.54-1.54,0-.85.69-1.54,1.54-1.54Zm6.5,0h.03c.85,0,1.54.69,1.54,1.54,0,.85-.69,1.54-1.54,1.54h-.03c-.85,0-1.54-.69-1.54-1.54,0-.85.69-1.54,1.54-1.54Zm6.5,0h.03c.85,0,1.54.69,1.54,1.54,0,.85-.69,1.54-1.54,1.54h-.03c-.85,0-1.54-.69-1.54-1.54,0-.85.69-1.54,1.54-1.54Zm6.5,0h.03c.85,0,1.54.69,1.54,1.54,0,.85-.69,1.54-1.54,1.54h-.03c-.85,0-1.54-.69-1.54-1.54,0-.85.69-1.54,1.54-1.54Z"></path><path class="cls-9" d="m926.45,361.37c.85,0,1.55.69,1.55,1.54,0,.63-.37,1.17-.91,1.41-.19.09-.41.14-.63.14-.85,0-1.54-.68-1.54-1.53,0-.85.69-1.55,1.54-1.55Z"></path><path class="cls-9" d="m926.45,367.22c.85,0,1.54.68,1.54,1.53v.02c0,.85-.69,1.54-1.54,1.54s-1.54-.69-1.54-1.54.69-1.55,1.54-1.55Zm0,5.85c.85,0,1.54.68,1.54,1.53v.02c0,.85-.69,1.54-1.54,1.54s-1.54-.69-1.54-1.54c0-.85.69-1.55,1.54-1.55Zm0,5.85c.85,0,1.54.68,1.54,1.53v.02c0,.85-.69,1.54-1.54,1.54s-1.54-.69-1.54-1.54c0-.85.69-1.55,1.54-1.55Z"></path></g><g class="cls-45"><path class="cls-9" d="m1078.55,115.09c-.85,0-1.54-.68-1.54-1.53h0c0-.86.69-1.55,1.54-1.55s1.54.69,1.54,1.54-.69,1.55-1.54,1.55Z"></path><path class="cls-9" d="m1078.55,108.12c-.85,0-1.54-.69-1.54-1.54v-.03c0-.85.69-1.54,1.54-1.54s1.54.69,1.54,1.54v.03c0,.85-.69,1.54-1.54,1.54Zm0-6.98c-.85,0-1.54-.69-1.54-1.54v-.03c0-.85.69-1.54,1.54-1.54s1.54.69,1.54,1.54v.03c0,.85-.69,1.54-1.54,1.54Zm0-6.98c-.85,0-1.54-.69-1.54-1.54v-.03c0-.85.69-1.54,1.54-1.54s1.54.69,1.54,1.54v.03c0,.85-.69,1.54-1.54,1.54Zm0-6.98c-.85,0-1.54-.69-1.54-1.54v-.03c0-.85.69-1.54,1.54-1.54s1.54.69,1.54,1.54v.03c0,.85-.69,1.54-1.54,1.54Z"></path><path class="cls-9" d="m1078.55,80.18c-.85,0-1.54-.68-1.54-1.53h0c0-.86.69-1.55,1.54-1.55s1.55.69,1.55,1.54c0,.63-.37,1.17-.91,1.41-.19.09-.41.14-.63.14Z"></path><path class="cls-9" d="m1200.45,80.18h-.03c-.85,0-1.54-.69-1.54-1.54s.69-1.54,1.54-1.54h.03c.85,0,1.54.69,1.54,1.54s-.69,1.54-1.54,1.54Zm-6.77,0h-.03c-.85,0-1.54-.69-1.54-1.54s.69-1.54,1.54-1.54h.03c.85,0,1.54.69,1.54,1.54s-.69,1.54-1.54,1.54Zm-6.77,0h-.03c-.85,0-1.54-.69-1.54-1.54s.69-1.54,1.54-1.54h.03c.85,0,1.54.69,1.54,1.54s-.69,1.54-1.54,1.54Zm-6.77,0h-.03c-.85,0-1.54-.69-1.54-1.54s.69-1.54,1.54-1.54h.03c.85,0,1.54.69,1.54,1.54s-.69,1.54-1.54,1.54Zm-6.77,0h-.03c-.85,0-1.54-.69-1.54-1.54s.69-1.54,1.54-1.54h.03c.85,0,1.54.69,1.54,1.54s-.69,1.54-1.54,1.54Zm-6.77,0h-.03c-.85,0-1.54-.69-1.54-1.54s.69-1.54,1.54-1.54h.03c.85,0,1.54.69,1.54,1.54s-.69,1.54-1.54,1.54Zm-6.77,0h-.03c-.85,0-1.54-.69-1.54-1.54s.69-1.54,1.54-1.54h.03c.85,0,1.54.69,1.54,1.54s-.69,1.54-1.54,1.54Zm-6.77,0h-.03c-.85,0-1.54-.69-1.54-1.54s.69-1.54,1.54-1.54h.03c.85,0,1.54.69,1.54,1.54s-.69,1.54-1.54,1.54Zm-6.77,0h-.03c-.85,0-1.54-.69-1.54-1.54s.69-1.54,1.54-1.54h.03c.85,0,1.54.69,1.54,1.54s-.69,1.54-1.54,1.54Zm-6.77,0h-.03c-.85,0-1.54-.69-1.54-1.54s.69-1.54,1.54-1.54h.03c.85,0,1.54.69,1.54,1.54s-.69,1.54-1.54,1.54Zm-6.77,0h-.03c-.85,0-1.54-.69-1.54-1.54s.69-1.54,1.54-1.54h.03c.85,0,1.54.69,1.54,1.54s-.69,1.54-1.54,1.54Zm-6.77,0h-.03c-.85,0-1.54-.69-1.54-1.54s.69-1.54,1.54-1.54h.03c.85,0,1.54.69,1.54,1.54s-.69,1.54-1.54,1.54Zm-6.77,0h-.03c-.85,0-1.54-.69-1.54-1.54s.69-1.54,1.54-1.54h.03c.85,0,1.54.69,1.54,1.54s-.69,1.54-1.54,1.54Zm-6.77,0h-.03c-.85,0-1.54-.69-1.54-1.54s.69-1.54,1.54-1.54h.03c.85,0,1.54.69,1.54,1.54s-.69,1.54-1.54,1.54Zm-6.77,0h-.03c-.85,0-1.54-.69-1.54-1.54s.69-1.54,1.54-1.54h.03c.85,0,1.54.69,1.54,1.54s-.69,1.54-1.54,1.54Zm-6.77,0h-.03c-.85,0-1.54-.69-1.54-1.54s.69-1.54,1.54-1.54h.03c.85,0,1.54.69,1.54,1.54s-.69,1.54-1.54,1.54Zm-6.77,0h-.03c-.85,0-1.54-.69-1.54-1.54s.69-1.54,1.54-1.54h.03c.85,0,1.54.69,1.54,1.54s-.69,1.54-1.54,1.54Zm-6.77,0h-.03c-.85,0-1.54-.69-1.54-1.54s.69-1.54,1.54-1.54h.03c.85,0,1.54.69,1.54,1.54s-.69,1.54-1.54,1.54Z"></path><path class="cls-9" d="m1207.2,80.18c-.85,0-1.55-.69-1.55-1.54s.68-1.54,1.53-1.54h.01c.85,0,1.54.69,1.54,1.54s-.69,1.54-1.54,1.54Z"></path></g><g><path class="cls-7" d="m1339.1,54.92c-.01-.13-.03-.26-.04-.38-.01-.09-.02-.18-.03-.27,0-.07-.03-.13-.04-.2-.04-.29-.1-.57-.16-.84-.02-.11-.04-.22-.07-.32-.09-.37-.2-.73-.33-1.08-.02-.05-.04-.1-.06-.14-.11-.3-.24-.59-.37-.87-.05-.1-.1-.2-.15-.31-.12-.23-.24-.45-.37-.67-.06-.1-.11-.19-.18-.28-.17-.26-.35-.51-.54-.74-.03-.03-.05-.07-.08-.1-.22-.27-.45-.51-.7-.75-.07-.07-.14-.13-.22-.2-.18-.17-.37-.33-.57-.48-.09-.07-.18-.13-.27-.2-.21-.15-.43-.29-.65-.42-.06-.03-.11-.07-.16-.1-.02-.01-.04-.02-.06-.03-.18-.1-.36-.18-.54-.26-.09-.04-.18-.09-.27-.13-.28-.12-.57-.22-.86-.3l-8.14-2.37s0,0,0,0h0s0,0,0,0c.29.09.57.19.85.3.09.04.18.09.27.13.18.08.36.17.54.26.08.04.15.09.22.13.22.13.44.27.65.41.09.06.18.13.27.2.19.15.38.31.56.47.07.07.15.13.22.2.24.24.48.48.69.75.03.03.05.07.08.1.19.24.37.48.54.74.06.09.12.19.18.28.13.22.26.44.37.67.05.1.1.2.15.31.13.28.26.57.37.87.02.05.04.09.06.14.12.35.23.71.32,1.08.03.1.05.21.07.32.06.28.12.56.16.84.02.16.05.31.07.47.02.13.03.26.04.38.02.2.03.4.04.61,0,.13.01.25.02.38,0,.22,0,.45,0,.68,0,.11,0,.22,0,.33-.02.34-.04.69-.09,1.04l-57.21,348.23c-.82,6.95-5.85,12.71-11.57,13.59h0l-141.3.48c-1.06,0-2.06-.18-2.98-.51l7.91,2.89c.93.34,1.93.52,2.99.52l140.16-.31c6.33-.01,12.18-6.16,13.08-13.72l57.09-348.77c.04-.35.07-.7.09-1.04,0-.11,0-.22,0-.33,0-.23.01-.46,0-.68,0-.13,0-.25-.02-.38,0-.2-.02-.41-.04-.61Z"></path><path class="cls-49" d="m1323.19,53.91l-142.48,7.37c-2.11.11-4.08,2.15-4.4,4.56l-61.41,336.62c-.33,2.52,1.14,4.54,3.28,4.54l144.74-.57c2.23,0,4.29-2.09,4.61-4.66l59.09-343.6c.3-2.45-1.23-4.35-3.42-4.24Z"></path><g class="cls-6"><path class="cls-28" d="m1320.3,53.91l-137,7.37c-2.03.11-3.93,2.15-4.23,4.56l-2.91,16.58,144.57-6.92,2.87-17.34c.29-2.45-1.18-4.35-3.29-4.24Z"></path></g><path class="cls-35" d="m1321.87,43.19l-137.53,7.59c-5.96.33-11.52,6.32-12.43,13.39l-59.7,340.46c-.95,7.38,3.19,13.36,9.25,13.35l139.84-.36c6.31-.02,12.16-6.16,13.05-13.71l57.2-348.27c.85-7.22-3.49-12.79-9.69-12.45Zm.26,23.25l-53.99,329.02c-.31,2.57-2.29,5.23-4.43,5.23h-139.18c-2.06,0-3.47-2.02-3.15-4.54l56.23-322.04c.31-2.41,2.2-4.45,4.23-4.56l137-7.37c2.11-.11,3.58,1.79,3.29,4.24Z"></path></g><g><path class="cls-7" d="m689.99,417.4h0c-5.72-.88-10.74-6.63-11.57-13.59l-57.21-348.23c-.04-.35-.07-.7-.09-1.04,0-.11,0-.22,0-.33,0-.23-.01-.46,0-.68,0-.13,0-.25.01-.38,0-.2.02-.41.04-.61.01-.13.03-.26.04-.38.02-.16.04-.32.07-.47.04-.29.1-.57.16-.84.02-.11.04-.21.07-.32.09-.37.2-.73.32-1.08.02-.05.04-.09.06-.14.11-.3.23-.59.37-.87.05-.1.1-.2.15-.31.12-.23.24-.45.37-.67.06-.1.11-.19.18-.28.17-.26.35-.5.54-.74.03-.03.05-.07.08-.1.22-.27.45-.51.69-.75.07-.07.14-.13.22-.2.18-.17.37-.33.56-.47.09-.07.18-.13.27-.2.21-.15.42-.29.65-.41.07-.04.15-.09.22-.13.18-.09.36-.18.54-.26.09-.04.18-.09.27-.13.28-.11.56-.21.85-.3,0,0,0,0,0,0h0s0,0,0,0l-8.14,2.37c-.29.09-.58.19-.86.3-.09.04-.18.09-.27.13-.18.08-.37.17-.54.26-.02.01-.04.02-.06.03-.06.03-.11.07-.16.1-.22.13-.44.27-.65.42-.09.06-.18.13-.27.2-.2.15-.38.31-.57.48-.07.07-.15.13-.22.2-.24.24-.48.49-.7.75-.03.03-.05.07-.08.1-.19.24-.37.49-.54.74-.06.09-.12.19-.18.28-.13.22-.26.44-.37.67-.05.1-.11.2-.15.31-.13.28-.26.57-.37.87-.02.05-.04.09-.06.14-.12.35-.23.71-.33,1.08-.03.11-.05.21-.07.32-.06.28-.12.56-.16.84-.01.07-.03.13-.04.2-.01.09-.02.18-.03.27-.02.13-.03.26-.04.38-.02.2-.03.4-.04.61,0,.13-.01.25-.02.38,0,.23,0,.45,0,.68,0,.11,0,.22,0,.33.02.34.04.69.09,1.04l57.09,348.77c.89,7.56,6.75,13.71,13.08,13.72l140.16.31c1.06,0,2.06-.18,2.99-.52l7.91-2.89c-.92.34-1.92.52-2.98.51l-141.3-.48Z"></path><path class="cls-50" d="m773.04,65.84c-.31-2.41-2.2-4.45-4.23-4.56l-137-7.37c-2.11-.11-3.58,1.79-3.29,4.24l56.82,343.6c.3,2.57,2.29,4.65,4.43,4.66l139.18.57c2.06,0,3.47-2.02,3.15-4.54l-59.05-336.62Z"></path><g class="cls-44"><path class="cls-28" d="m768.81,61.28l-137-7.37c-2.11-.11-3.58,1.79-3.29,4.24l3.25,19.67,144.18,4.6-2.91-16.58c-.31-2.41-2.2-4.45-4.23-4.56Z"></path></g><path class="cls-35" d="m780.19,64.17c-.91-7.07-6.46-13.06-12.43-13.39l-137.53-7.59c-6.2-.34-10.55,5.23-9.69,12.45l57.2,348.27c.89,7.55,6.74,13.69,13.05,13.71l139.84.36c6.06.02,10.2-5.96,9.25-13.35l-59.7-340.46Zm48.75,342.24h-139.18c-2.14,0-4.13-2.09-4.43-4.66l-56.82-343.6c-.29-2.45,1.18-4.35,3.29-4.24l50.29,2.7s0,0,0,0c2.64.84,5.07,3.38,6.31,6.75,1.48,4.02,4.65,6.86,7.86,7.02l12.6.65c3.2.17,5.55-2.4,6.18-6.27,1.13-6.86,6.78-6.02,6.78-6.02l46.98,2.53c2.03.11,3.93,2.15,4.23,4.56l59.05,336.62c.32,2.52-1.09,3.97-3.15,3.96Z"></path></g><g class="cls-45"><path class="cls-9" d="m963.43,196.15c-.83,0-1.52-.66-1.54-1.5-.02-.85.65-1.56,1.5-1.58h.03c.85-.03,1.56.65,1.58,1.5.02.85-.65,1.56-1.5,1.58h-.03s-.03,0-.04,0Zm-6.7-.12s-.06,0-.09,0h-.05c-.85-.06-1.49-.8-1.43-1.65.06-.85.79-1.49,1.64-1.43.85.05,1.5.78,1.45,1.62-.05.82-.72,1.45-1.53,1.45Zm13.42-.37c-.77,0-1.44-.57-1.53-1.35-.1-.84.49-1.61,1.33-1.72h.05c.85-.1,1.61.51,1.7,1.35.1.85-.51,1.61-1.36,1.7l-.17-1.53.16,1.53c-.06,0-.12.01-.18.01Zm-20.12-.35c-.08,0-.16,0-.24-.02l.24-1.52-.25,1.52c-.84-.13-1.42-.91-1.3-1.75.12-.84.89-1.42,1.73-1.3h.05c.84.14,1.41.93,1.28,1.77-.12.76-.77,1.3-1.52,1.3Zm26.75-.74c-.72,0-1.36-.51-1.51-1.24-.17-.83.37-1.65,1.21-1.81.83-.18,1.65.35,1.83,1.18.18.83-.35,1.65-1.18,1.83h-.05c-.1.03-.2.04-.3.04Zm-33.35-.58c-.12,0-.25-.01-.37-.05h-.04c-.82-.22-1.32-1.06-1.11-1.89.21-.82,1.05-1.32,1.88-1.11.83.2,1.34,1.04,1.13,1.87-.17.7-.8,1.17-1.49,1.17Zm39.86-1.11c-.66,0-1.27-.42-1.47-1.09-.25-.81.2-1.68,1.02-1.93h.03c.81-.26,1.68.2,1.93,1.01.25.81-.2,1.68-1.02,1.93h-.03c-.15.05-.3.08-.46.08Zm-46.31-.81c-.17,0-.34-.03-.51-.09h-.01c-.8-.28-1.23-1.16-.96-1.96.28-.8,1.15-1.23,1.96-.96h.04c.8.3,1.22,1.18.94,1.98-.22.63-.82,1.03-1.45,1.03Zm52.66-1.47c-.6,0-1.18-.35-1.42-.94-.33-.78.03-1.68.81-2.01l.04-.02c.79-.32,1.69.06,2.01.84.32.79-.06,1.69-.84,2.01l-.58-1.43.57,1.43c-.19.08-.39.12-.59.12Zm-58.91-1.03c-.22,0-.44-.05-.64-.14l.65-1.4-.65,1.39c-.77-.35-1.12-1.26-.77-2.04.35-.77,1.25-1.12,2.03-.78l.04.02c.77.36,1.11,1.27.75,2.04-.26.56-.82.9-1.4.9Zm65-1.82c-.56,0-1.1-.3-1.37-.83-.39-.76-.09-1.69.66-2.08.75-.4,1.69-.12,2.09.63.4.75.12,1.68-.63,2.08l-.04.02c-.23.12-.47.17-.7.17Zm-71-1.24c-.26,0-.51-.06-.75-.2l-.04-.02c-.74-.43-.99-1.37-.56-2.11.43-.74,1.37-.99,2.11-.56.74.42,1.01,1.36.59,2.1-.28.5-.8.78-1.34.78Zm76.82-2.15c-.51,0-1.01-.25-1.3-.72-.46-.72-.24-1.67.48-2.13.71-.46,1.67-.26,2.13.45.46.71.26,1.67-.45,2.13l-.04.02c-.26.16-.54.24-.82.24Zm-82.51-1.45c-.3,0-.61-.09-.88-.28h-.02c-.7-.5-.88-1.45-.39-2.15.48-.7,1.44-.88,2.14-.39l.03.02c.7.49.87,1.45.39,2.14-.3.43-.78.66-1.27.66Zm87.99-2.46c-.46,0-.91-.2-1.21-.59-.53-.67-.41-1.64.26-2.16l.02-.02c.67-.53,1.64-.41,2.16.26.53.67.41,1.64-.26,2.16l-.02.02c-.28.22-.62.33-.95.33Zm-93.34-1.64c-.35,0-.69-.12-.98-.36l-.03-.03c-.65-.55-.73-1.52-.17-2.17.55-.65,1.52-.73,2.17-.17.65.55.74,1.52.2,2.17-.31.37-.74.55-1.18.55Zm98.46-2.75c-.42,0-.83-.17-1.13-.5-.58-.63-.54-1.6.09-2.18.62-.58,1.6-.56,2.18.06.58.62.56,1.59-.06,2.17l-.03.03c-.3.27-.67.41-1.04.41Zm-103.4-1.81c-.4,0-.8-.15-1.1-.46l1.1-1.08-1.1,1.07c-.59-.6-.6-1.58,0-2.18.6-.6,1.56-.61,2.16-.02l.04.04c.6.61.59,1.58-.02,2.18-.3.29-.69.44-1.08.44Zm108.09-3c-.35,0-.71-.12-1-.37-.65-.55-.72-1.53-.17-2.18l.05-.06c.57-.63,1.55-.68,2.18-.11.63.57.68,1.55.11,2.18l-1.14-1.03,1.14,1.04c-.3.36-.73.54-1.16.54Zm-112.62-1.98c-.45,0-.89-.19-1.19-.57l1.19-.98-1.2.97c-.54-.65-.46-1.63.2-2.17.65-.54,1.62-.46,2.17.19l.03.03c.54.66.44,1.63-.22,2.17-.29.23-.63.35-.97.35Zm116.86-3.26c-.32,0-.65-.1-.93-.31-.68-.51-.81-1.48-.3-2.16.5-.68,1.47-.83,2.16-.33.69.5.83,1.47.33,2.15l-.03.04c-.3.4-.76.61-1.23.61Zm-120.92-2.11c-.49,0-.98-.24-1.28-.68l1.28-.86-1.28.86c-.48-.7-.31-1.66.39-2.14.69-.48,1.64-.32,2.13.37l.03.05c.48.7.29,1.66-.41,2.14-.26.18-.57.27-.86.27Zm124.67-3.47c-.27,0-.54-.07-.79-.22-.73-.43-.97-1.38-.54-2.12l.03-.05c.45-.72,1.4-.94,2.12-.49.72.45.94,1.4.49,2.12l-1.31-.81,1.3.82c-.29.49-.8.75-1.32.75Zm-128.23-2.25c-.54,0-1.06-.28-1.34-.78l-.02-.04c-.41-.75-.14-1.68.61-2.09.75-.41,1.68-.14,2.09.61.42.74.16,1.68-.58,2.1-.24.14-.5.2-.76.2Zm131.46-3.65c-.22,0-.44-.05-.65-.14-.77-.36-1.1-1.28-.75-2.06l.03-.07c.38-.76,1.31-1.07,2.07-.69.76.38,1.07,1.31.69,2.07l-1.38-.69,1.38.69c-.26.56-.81.89-1.39.89Zm-134.48-2.36c-.59,0-1.15-.34-1.41-.91v-.02c-.36-.78,0-1.69.77-2.03.78-.35,1.69,0,2.03.78v.02c.36.78,0,1.69-.77,2.03-.2.09-.42.13-.63.13Zm137.15-3.82c-.17,0-.35-.03-.52-.09-.8-.29-1.21-1.18-.93-1.98l.02-.06c.31-.79,1.2-1.19,1.99-.88.79.31,1.19,1.2.88,1.99l-1.44-.56,1.43.56c-.22.63-.81,1.01-1.44,1.01Zm-139.62-2.45c-.64,0-1.23-.4-1.45-1.03v-.03c-.28-.81.15-1.68.95-1.95.81-.27,1.68.16,1.95.97.28.8-.15,1.69-.95,1.97-.17.06-.34.08-.51.08Zm141.73-3.94c-.13,0-.27-.02-.4-.05-.82-.22-1.31-1.07-1.09-1.89l.02-.06c.24-.82,1.09-1.29,1.91-1.05.82.24,1.29,1.09,1.05,1.91l-1.48-.43,1.48.43c-.18.69-.8,1.14-1.48,1.14Zm-143.6-2.51c-.69,0-1.32-.47-1.49-1.17v-.05c-.2-.83.32-1.66,1.15-1.85.83-.19,1.66.33,1.84,1.16.2.83-.3,1.66-1.13,1.86-.12.03-.25.05-.37.05Zm145.11-4.06c-.1,0-.2,0-.3-.03-.83-.17-1.38-.98-1.21-1.81.14-.84.94-1.4,1.78-1.25.84.14,1.4.95,1.26,1.79v.07c-.16.73-.8,1.24-1.52,1.24Zm-146.39-2.55c-.76,0-1.42-.56-1.52-1.33l1.53-.21-1.53.21c-.12-.84.45-1.62,1.29-1.75.84-.13,1.62.44,1.75,1.28v.05c.13.84-.46,1.62-1.3,1.74-.07.01-.15.02-.22.02Zm147.29-4.12c-.06,0-.12,0-.17,0-.85-.1-1.45-.86-1.36-1.7.07-.85.81-1.47,1.66-1.4.85.07,1.48.82,1.4,1.67v.07c-.1.79-.76,1.37-1.54,1.37Zm-147.97-2.59c-.81,0-1.49-.62-1.53-1.44v-.03c-.05-.85.6-1.58,1.45-1.62.85-.05,1.58.6,1.62,1.45.05.85-.6,1.59-1.45,1.64-.03,0-.06,0-.09,0Zm148.27-4.13c-.85,0-1.54-.69-1.54-1.54v-.03c0-.28.08-.55.21-.78-.14-.23-.23-.51-.23-.81-.02-.85.65-1.55,1.5-1.57.85-.02,1.56.65,1.58,1.5v.07c0,.28-.08.55-.21.78.14.23.23.51.23.81v.03c0,.85-.69,1.54-1.54,1.54Zm-148.34-2.59s-.03,0-.04,0c-.85-.02-1.52-.73-1.5-1.58v-.05c.04-.85.76-1.51,1.6-1.47.85.04,1.51.75,1.48,1.6-.02.84-.71,1.5-1.54,1.5Zm147.88-5.73c-.77,0-1.44-.58-1.53-1.37v-.03c-.1-.85.51-1.61,1.36-1.7.85-.09,1.61.51,1.7,1.36v.03c.1.85-.51,1.61-1.36,1.7-.06,0-.12,0-.17,0Zm-147.35-.97c-.06,0-.13,0-.2-.01-.84-.11-1.44-.88-1.33-1.72l1.53.19-1.53-.2c.1-.84.86-1.45,1.71-1.35.84.1,1.45.86,1.35,1.7v.05c-.1.78-.77,1.35-1.53,1.35Zm146.3-5.68c-.72,0-1.36-.51-1.51-1.24v-.03c-.17-.83.37-1.65,1.2-1.81.83-.17,1.65.37,1.81,1.21v.03c.17.83-.37,1.65-1.2,1.81-.1.02-.2.03-.3.03Zm-145.16-.96c-.11,0-.22-.01-.32-.03-.83-.18-1.36-1-1.18-1.83v-.05c.2-.83,1.03-1.34,1.86-1.15.83.19,1.34,1.02,1.15,1.85-.15.72-.79,1.22-1.51,1.22Zm143.52-5.56c-.65,0-1.26-.42-1.47-1.08l-.02-.06c-.24-.82.23-1.67,1.04-1.91.82-.24,1.67.23,1.91,1.04l-1.48.43,1.48-.43c.26.81-.19,1.67-1,1.93-.15.05-.31.07-.46.07Zm-141.79-.94c-.16,0-.32-.02-.47-.08-.81-.26-1.25-1.13-.99-1.94l1.47.47-1.46-.48c.26-.81,1.12-1.26,1.93-1.01.81.25,1.26,1.1,1.02,1.91l-.02.05c-.21.65-.82,1.07-1.47,1.07Zm139.56-5.41c-.6,0-1.18-.36-1.43-.95l-.03-.06c-.31-.79.08-1.69.87-2,.79-.31,1.69.08,2,.87l-1.43.56,1.43-.56c.33.78-.04,1.68-.82,2.01-.19.08-.4.12-.6.12Zm-137.23-.91c-.2,0-.4-.04-.6-.12-.78-.33-1.15-1.24-.82-2.02l1.42.6-1.41-.61c.33-.78,1.23-1.16,2.01-.83.78.32,1.16,1.22.84,2l-.02.04c-.25.59-.82.94-1.42.94Zm134.41-5.21c-.55,0-1.08-.29-1.35-.81l-.03-.05c-.39-.76-.08-1.69.68-2.07.76-.38,1.69-.08,2.07.68l-1.37.7,1.38-.69c.39.75.1,1.68-.65,2.08-.23.12-.47.18-.72.18Zm-131.52-.87c-.25,0-.5-.06-.73-.19-.75-.4-1.03-1.34-.62-2.09l1.36.73-1.35-.74c.4-.75,1.33-1.04,2.08-.64.75.4,1.04,1.32.65,2.07l-.02.04c-.28.52-.81.81-1.36.81Zm128.18-4.96c-.51,0-1.01-.25-1.3-.72v-.02c-.47-.72-.26-1.67.46-2.13.72-.46,1.67-.24,2.13.48v.02c.47.72.26,1.67-.46,2.13-.26.16-.54.24-.82.24Zm-124.75-.84c-.29,0-.58-.08-.83-.25-.71-.46-.92-1.41-.46-2.12l.02-.03c.47-.71,1.43-.91,2.13-.44.71.47.9,1.42.44,2.13-.3.46-.79.71-1.3.71Zm120.88-4.67c-.47,0-.94-.22-1.24-.63-.53-.67-.4-1.63.27-2.15.67-.53,1.64-.4,2.17.27l.05.06c.5.68.36,1.65-.33,2.15-.28.2-.6.3-.91.3Zm-116.94-.78c-.33,0-.67-.11-.95-.33-.67-.53-.79-1.49-.26-2.16l.03-.03c.53-.66,1.5-.77,2.17-.24.66.53.77,1.5.24,2.17-.3.39-.76.59-1.22.59Zm112.59-4.36c-.41,0-.82-.16-1.12-.48l-.03-.03c-.58-.63-.54-1.6.09-2.18.63-.58,1.6-.54,2.18.09l-1.13,1.04,1.14-1.04c.58.62.55,1.6-.07,2.18-.3.28-.68.42-1.06.42Zm-108.17-.72c-.38,0-.76-.14-1.06-.42-.62-.58-.65-1.56-.06-2.18l.04-.04c.6-.61,1.57-.62,2.18-.02.61.6.62,1.57.02,2.18-.3.32-.71.48-1.12.48Zm103.38-4.01c-.37,0-.74-.13-1.03-.4-.64-.57-.7-1.54-.13-2.18.56-.64,1.53-.7,2.17-.13l.03.03c.63.57.68,1.54.11,2.18-.3.34-.72.51-1.14.51Zm-98.52-.66c-.43,0-.86-.18-1.16-.53-.56-.64-.49-1.61.15-2.17l1.01,1.16-1-1.17c.64-.56,1.61-.5,2.17.13.56.64.51,1.61-.13,2.17l-.03.03c-.29.25-.65.38-1.01.38Zm93.32-3.62c-.32,0-.65-.1-.92-.31-.68-.51-.83-1.48-.33-2.16.51-.68,1.46-.83,2.15-.33l.03.02c.68.51.82,1.48.31,2.16-.3.4-.77.62-1.23.62Zm-88.06-.59c-.48,0-.95-.22-1.25-.64-.5-.69-.35-1.65.34-2.15h.01c.69-.51,1.65-.37,2.15.32.5.68.36,1.65-.33,2.15l-.03.02c-.27.2-.59.29-.9.29Zm82.5-3.2c-.27,0-.55-.07-.8-.23l-.03-.02c-.72-.45-.95-1.4-.5-2.12.45-.72,1.4-.95,2.12-.5h.02c.73.46.95,1.4.51,2.13-.29.47-.8.74-1.31.74Zm-76.88-.51c-.52,0-1.03-.26-1.32-.74-.44-.73-.21-1.67.52-2.11,0,0,.02-.01.02-.01.73-.44,1.68-.2,2.12.52.44.73.21,1.67-.51,2.11,0,0-.02.01-.02.01-.25.15-.52.22-.79.22Zm70.99-2.75c-.22,0-.45-.05-.67-.15l-.04-.02c-.76-.38-1.07-1.31-.69-2.07.38-.76,1.31-1.07,2.07-.69l-.69,1.38.7-1.37c.76.37,1.08,1.3.71,2.06-.27.55-.81.87-1.38.87Zm-65.06-.43c-.57,0-1.12-.32-1.39-.87-.37-.77-.05-1.69.71-2.06l.04-.02c.77-.36,1.69-.03,2.05.74.36.77.03,1.69-.74,2.05-.22.11-.45.15-.67.15Zm58.9-2.28c-.18,0-.37-.03-.55-.1l-.04-.02c-.79-.31-1.18-1.21-.87-2,.31-.79,1.21-1.18,2-.87l-.56,1.43.58-1.43c.79.31,1.19,1.2.89,1.99-.24.61-.82.99-1.44.99Zm-52.72-.35c-.62,0-1.21-.38-1.44-1-.3-.8.11-1.68.9-1.98h.02c.8-.31,1.68.09,1.99.89.3.8-.1,1.68-.89,1.99h-.03c-.18.08-.36.11-.54.11Zm46.34-1.8c-.13,0-.27-.02-.41-.05l-.06-.02c-.82-.24-1.28-1.1-1.04-1.91.24-.82,1.1-1.28,1.91-1.04l-.43,1.48.44-1.48c.82.22,1.3,1.07,1.08,1.89-.19.69-.81,1.14-1.49,1.14Zm-39.93-.26c-.68,0-1.3-.45-1.49-1.13-.23-.82.25-1.67,1.07-1.89h.05c.82-.23,1.66.27,1.88,1.09.21.82-.28,1.66-1.1,1.88-.14.04-.27.06-.41.06Zm33.38-1.29c-.1,0-.2,0-.3-.03-.84-.16-1.39-.96-1.24-1.8.16-.84.96-1.39,1.79-1.23h.05c.83.18,1.38.99,1.21,1.82-.15.73-.79,1.24-1.51,1.24Zm-26.82-.18c-.74,0-1.39-.53-1.52-1.28-.14-.84.42-1.63,1.26-1.78l.26,1.52-.25-1.52c.84-.15,1.64.41,1.79,1.24.15.84-.4,1.64-1.24,1.79h-.04c-.09.02-.18.03-.26.03Zm20.15-.77c-.05,0-.1,0-.15,0h-.03c-.85-.09-1.47-.84-1.38-1.69.08-.85.84-1.46,1.68-1.38h.03c.85.09,1.47.84,1.38,1.69-.08.8-.75,1.39-1.53,1.39Zm-13.48-.09c-.79,0-1.47-.61-1.53-1.41-.07-.85.56-1.59,1.41-1.66h.03c.85-.08,1.59.56,1.66,1.4.07.85-.56,1.59-1.41,1.66h-.03s-.09,0-.13,0Zm6.76-.26s-.01,0-.02,0c-.85,0-1.54-.69-1.54-1.54s.69-1.54,1.54-1.54h.05c.85.01,1.53.71,1.52,1.56-.01.84-.7,1.52-1.54,1.52Z"></path></g><g><rect class="cls-9" x="926.6" y="109.45" width="178.2" height="125.33" rx="9.18" ry="9.18"></rect><path class="cls-24" d="m1104.79,119.3v-5.08c0-2.63-2.13-4.77-4.77-4.77h-168.66c-2.63,0-4.77,2.13-4.77,4.77v5.08h178.2Z"></path></g><g><g><path class="cls-21" d="m866.49,174.83c.08.03.61.2.82.27.23.07.49.16.55.18.84.27,1.69.54,2.53.81.94.3,1.88.58,2.82.87.39-5.49.75-10.25,1.12-13.56.69-5.47-8.48-12.71-9.16-8.51-1.21,7.43-4.25,13.34-6.1,17.32,2.45.92,4.93,1.79,7.42,2.62Z"></path><path class="cls-19" d="m860.92,165.5c-1.24,3.2-16.81,32.99-21.68,40.73-19.6-7.06-26-18.16-41.06-29.64-15.3-11.32-38.86,15.83-23.37,27,18.73,12.96,50.38,33.74,73.6,33.31,7.66-.56,12.01-5.93,13.62-12.51,4.82-19.64,9.81-39.4,12.11-52.05,0-.71-13.12-6.74-13.24-6.84Z"></path><path class="cls-3" d="m827.84,224.82c-7.19-3.49-24.55-12-30.03-17.76-5.42-5.7.81-8.9-3.55-15.44-1.6-2.4-.63-5.54,1.41-7.27-1.7-2.44-3.08-5.02-4.23-7.88-.48-1.2-.35-2.44.16-3.55-14.87-7.55-31.59,19.98-16.78,30.67,18.73,12.96,50.38,33.74,73.6,33.31,7.66-.56,12.01-5.93,13.62-12.51.5-2.06.96-4.14,1.39-6.24-4.62,3.65-10.03,6.42-15.77,7.61-8.27,1.73-12.27,2.72-19.83-.94Z"></path><g><g><path class="cls-21" d="m863.64,163.09c-1.34-5.57-1.2-21.73-.32-23.2.89-1.47,9.57-3.3,13.52,3.07,3.95,6.37,3.28,15.88,2.53,19.31-.89,4.09-5.44,6.51-7.21,5.96-5.22-1.62-7.84-2.32-8.53-5.14Z"></path><path class="cls-21" d="m879.45,127.29c-5.81,6.29-7.63,10.32-10.12,14.08-.98,1.48-7.73,1.09-5.82-1.98.61-1.02,1.36-2.21,2.07-3.14,3.86-5.07,8.39-9.46,13.09-13.73,1.95-1.8,3.02,2.33.78,4.76Z"></path><path class="cls-3" d="m878.78,126.17c-1.38,2.85-3.81,5.02-5.87,7.38-.88,1.14-1.72,2.3-2.42,3.56-.57,1.47-1.09,3-1.48,4.53,0,.01,0,.02,0,.03.14-.09.25-.19.33-.31,2.49-3.76,4.31-7.79,10.12-14.08,1.54-1.67,1.52-4.13.73-4.94-.29,1.29-.78,2.54-1.4,3.82Z"></path></g><path class="cls-21" d="m881.83,142.47c-.08.02-.16.04-.24.06-.3,1.16-.75,2.27-1.32,3.21-.56.91-1.27,1.75-2.08,2.48.07-.02.14-.03.19-.04l-1.21,3.25c-.68,1.68,1.84,2.95,2.78,1.38,0,0,4.35-6.9,4.35-6.9,1.1-1.62-.53-3.97-2.46-3.43Z"></path><path class="cls-3" d="m878.27,153.46c-1.46-1.24,3.65-8.82,4.72-10.18.13-.21.27-.42.41-.62-.46-.25-1-.34-1.57-.18-.08.02-.16.04-.24.06-.3,1.16-.75,2.27-1.32,3.21-.56.91-1.27,1.75-2.08,2.48.07-.02.14-.03.19-.04l-1.21,3.25c-.39.97.28,1.8,1.1,2.03Z"></path><path class="cls-21" d="m880.38,138.71c-.26.06-.55.13-.84.2-.3,1.13-.74,2.2-1.3,3.11-.59.96-1.34,1.84-2.21,2.6.34-.08.68-.15.9-.21l-1.21,3.25c-.68,1.68,1.84,2.95,2.78,1.38,0,0,4.35-6.9,4.35-6.9,1.1-1.62-.53-3.97-2.46-3.43Z"></path><path class="cls-3" d="m876.97,149.72c-.96-.79-.15-2.18.38-3.47.26-.73,3.29-5.22,3.54-5.59.37-.55.78-1.13,1.23-1.68-.49-.32-1.09-.46-1.73-.28-.26.06-.55.13-.84.2-.3,1.13-.74,2.2-1.3,3.11-.59.96-1.34,1.84-2.21,2.6.34-.08.68-.15.9-.21l-1.21,3.25c-.42,1.03.36,1.9,1.25,2.07Z"></path><path class="cls-21" d="m879.02,135.14c-1.88.44-4.78,1.13-6.64,1.54-4.08.66-7.34,9.5,1.44,4.56.39-.22,1.31-.3,1.75-.4l-1.21,3.25c-.68,1.68,1.84,2.95,2.78,1.38,0,0,4.35-6.9,4.35-6.9,1.1-1.63-.53-3.97-2.46-3.43Z"></path><path class="cls-3" d="m878.85,137.28c-3.37.81-7.7,2.33-7.79,2.41-4.14,3.71-4.5,6.09-4.87,7.23.53.83,4.38-3.85,7.62-5.68.39-.22,1.31-.3,1.75-.4l-1.21,3.25c-.5,1.23.72,2.24,1.78,2.07-1.98-1.28,2.42-3.41,3.59-5.92.53-1.14.07-2.33-.87-2.97Z"></path><path class="cls-21" d="m863.24,154.81s2.43-7.78,4.11-9.93,3.76-4.41,4.52-4.76c.61-.28,6.1-2.03,6.1-2.03.62-.24.93-.1,1.17.52.35.93.48,2.3-1.01,3.46-2.5,1.96-4.36,3-4.36,3l-1,6.07s.31,12.19-6.77,10.86c-4.02-.76-2.77-7.2-2.77-7.2Z"></path><path class="cls-3" d="m874.35,143.92c-.63.42-1.29.79-1.98,1.12.01.33,0,.65-.03.97-.23,2.33-.19,4.61-.57,6.93-.29,1.77-.73,3.49-1.05,5.25-.19,1.02-.49,1.99-.89,2.89,3.12-2.73,2.94-9.93,2.94-9.93l1-6.07s1.86-1.04,4.36-3c.56-.44.87-.89,1.02-1.34-.53.44-3.77,2.49-4.8,3.18Z"></path></g></g><g><path class="cls-23" d="m752.31,406.43h38.64c0-38.57-3.33-86.21-3.33-86.21-4.02-40.93-57.25-8.41-46.55,31.42,6.74,21.73,9.53,39.31,11.23,54.79Z"></path><path class="cls-44" d="m752.31,406.43h17.82c-.46-.86-.91-1.99-1.36-2.67-4.77-7.36-8.21-15.58-11.2-23.79-5.55-15.24-9.16-31.14-15.29-46.16-.43-.99-.88-1.98-1.33-2.95-1.65,6.41-1.84,13.48.13,20.79,6.74,21.73,9.53,39.31,11.23,54.79Z"></path><path class="cls-23" d="m731.23,406.43c14.78-34.27,29.08-77.95,33.68-91.17,2.74-7.87-17.37-31.52-30.96-34.35-16.1-3.35-27.9,12.58-32.43,40.42-4.37,26.88-3.51,53.41-8.67,79.82-.33,1.67-.75,3.76-1.22,5.27h39.59Z"></path><path class="cls-44" d="m703.89,396.51c1.97-5.22,8.24-62.31,16.07-61.6,53.54,4.86,66.54-10.02,67.18-9.94,2.4-6.94-23.44-6.21-22.22-9.71,2.74-7.87-17.37-31.52-30.96-34.35-16.1-3.35-27.9,12.58-32.43,40.42-4.37,26.88-3.51,53.41-8.67,79.82-.33,1.67-.75,3.76-1.22,5.27h9.36c.73-2.12,1.68-5.63,2.89-9.92Z"></path><path class="cls-19" d="m801.66,186.18c2.01-8.39-4.65-13.94-29.82-20.37-7.54-1.92-12.47-4.29-18.37-3.45-20.42,2.89-38.19,8.91-36.48,21.2,2.88,20.66,7.05,60.08,6.67,76.42-.23,9.84-19.31,33.55-19.78,48.41,0,0,7.95,9.81,20.07,14.78,30.03,12.33,66.69.83,66.69.83,0,0,5.07-54.97,7.36-76.96,0,0,10.12-5.16,7.43-21.32-1.26-7.58-8.11-21.46-3.77-39.54Z"></path><path class="cls-5" d="m791.9,267.76c-3.97.37-7.99.54-11.97.18-2.67-.24-5.38-.58-8-1.2-2.6-.62-5.07-1.65-7.49-2.76-1.93-.89-3.65-2.13-5.43-3.29-2.08-1.36-4.18-2.69-6.3-4-4.23-2.61-8.52-5.13-12.85-7.56-4.28-2.4-5.97-7.28-5.04-11.78-.11-.42-.21-.84-.28-1.26-.93-5.15-.45-10.16.03-15.32.56-5.98.71-11.98,1.01-17.97-.36.04-.71.06-1.06.06-3.08,0-5.43-1.3-7.72-3.2-2.87-2.37-5.78-4.69-8.63-7.08,2.71,21.6,5.81,53.2,5.48,67.39-.23,9.84-19.31,33.55-19.78,48.41,0,0,1.29,1.6,3.63,3.82.25-.92.6-1.81,1.05-2.66,4.04-7.74,10.38-13.83,16.7-19.7,1.11-1.04,2.2-2.11,3.39-3.06,2.62-2.1,4.65-3.43,7.79-4.63,4.65-1.78,9.84-.84,14.6-.17,7.43,1.05,14.47,3.6,21.5,6.12,6.03,2.16,12.2,3.65,18.47,4.8.87.09,1.74.18,2.61.27.82-8.46,1.71-17.58,2.53-25.88-1.42.17-2.83.33-4.25.46Z"></path><path class="cls-21" d="m778.13,151.31c-.7-3.44-6.56-8.66-10.25-9.05-4.56-.49-7.21,1.67-9.4,9.86-1.79,6.7-4.26,10.09-4.26,10.09,1.33,7.42,10.46,11.11,18.23,9.99,3.08-.44,6.25-1.57,6.1-4.68,0-.02-.43-16.21-.43-16.21Z"></path><path class="cls-3" d="m761.87,149.81c.44,2.72,1.07,5.43,2,8.02.56,1.13,1.2,2.22,1.91,3.26.7.8,1.45,1.56,2.25,2.26,1,.67,2.04,1.27,3.12,1.8,2,.72,4.06,1.23,6.15,1.59.41.04.82.08,1.24.11-.08-3.06-.41-15.54-.41-15.54-.7-3.44-6.56-8.66-10.25-9.05-2.62-.28-4.6.31-6.24,2.42-.06,1.71.04,3.43.22,5.13Z"></path><path class="cls-15" d="m731.36,111.62c-5.16,9,4.9,31.81,14.01,24.97,11.64-8.75,2.51-27.53,2.51-27.53,0,0-11.37-6.45-16.52,2.56Z"></path><path class="cls-44" d="m749.73,119.15c-3.48,2.26-7.64,2.5-11.46,1.03-3.16-1.21-5.92-4.08-7.03-7.28-.07-.21-.14-.42-.2-.63-4.36,9.4,5.45,31,14.34,24.32,6.22-4.68,6.51-12.22,5.43-18.23-.34.28-.7.55-1.07.79Z"></path><path class="cls-21" d="m741.91,111.36c-6.7,11.84,18.17,39.68,18.17,39.68,0,0,13.4,15.68,28.94,6.42,15.96-9.51-3.37-53.55-3.37-53.55,0,0-38.5-1.8-43.73,7.45Z"></path><path class="cls-15" d="m758.45,150.7v.04s.09.09,0-.04Z"></path><path class="cls-15" d="m780.52,97.04c-13.06-3.95-23.11-2.1-33.81,6.06-12.23,9.33-6.55,31.14,3.03,41.83,6.82,7.62,8.18,9.26,8.39,9.58l2.53-10.57c-2.42,1.43-6.24-1.73-6.22-8.85.02-7.13,9.24.55,9.24.55,0,0-1.98-9.47-.27-14.03,1.71-4.56,25.43-9.24,25.43-9.24,0,0,4.3-11.5-8.32-15.32Z"></path><path class="cls-44" d="m754.45,135.07c0-.5.05-.92.13-1.28-1.81-.85-3.47-2.07-4.82-3.44-3.19-3.22-4.9-6.44-5.7-10.91-.99-5.52.01-11.71,2.98-16.59-.11.08-.22.16-.32.24-12.23,9.33-6.55,31.14,3.03,41.83,6.82,7.62,8.18,9.26,8.39,9.58l2.53-10.57c-2.42,1.43-6.24-1.73-6.22-8.85Z"></path><path class="cls-44" d="m762.8,134.52c-.13.05-.27.09-.4.13.78.56,1.29.98,1.29.98,0,0-.11-.51-.25-1.35-.21.09-.42.17-.64.25Z"></path></g><path class="cls-21" d="m811.59,274.94l-11.51-3.48.02-.05s-2.99-1.59-8.75-1.83c-4.37-.18-14.74-.47-18.53-.04h0c-13.06-4.46-40.11-12.89-54.95-19.31,6.41-19.89,12.23-40.34,23.57-57.93,10.5-19.79-18.11-32.37-26.88-10.06-2.52,4.79-4.61,9.79-6.52,14.68-6.02,15.78-12.01,32.33-15.95,48.69-1.91,7.87-5.16,18.58,4.13,23.24,18.41,9.26,33.71,8.12,74.32,13.55.03,0,.06,0,.1.01,3.07,7.53,15.2,8.02,18.49,7.76l4.38,1.46c.26.09.53.13.8.13,1.1,0,2.13-.73,2.43-1.88.34-1.29-.45-2.62-1.71-3.04l-2.78-.93.22-.41,4.06,1.46c.28.1.57.15.85.15,1.09,0,2.11-.72,2.42-1.85.35-1.28-.4-2.6-1.65-3.05l-3.26-1.18.19-.34,5.64,2.03c.28.1.57.15.85.15,1.09,0,2.11-.72,2.42-1.85.35-1.28-.4-2.6-1.65-3.05l-4.84-1.74.17-.31,12.64,2.91c.25.09,3.35,1.21,4.54-1.69.24-.58-.09-1.23-.69-1.4-.77-.22-1.81-.54-2.55-.8Z"></path><path class="cls-3" d="m788.56,287.96c-3.32-.11-6.7-.78-9.8-1.86-2.8-.97-4.92-2.54-6.52-5.01-.18-.28-.34-.57-.48-.86-2.14-.38-4.27-.83-6.43-1.15-2.74-.41-5.09-2.79-6.52-5.01-1.6-2.48-1.74-5.61-1.1-8.41.08-.34.19-.69.32-1.03-13.37-4.41-29.75-9.9-40.15-14.4,6.41-19.89,12.23-40.34,23.57-57.93,10.5-19.79-18.11-32.37-26.88-10.06-2.52,4.79-4.61,9.79-6.52,14.68-6.02,15.78-12.01,32.33-15.95,48.69-1.91,7.87-5.16,18.58,4.13,23.24,18.41,9.26,33.71,8.12,74.32,13.55.03,0,.06,0,.1.01,3.07,7.53,15.2,8.02,18.49,7.76l4.38,1.46c.26.09.53.13.8.13.83,0,1.61-.41,2.07-1.1-2.68-.57-5.28-1.43-7.81-2.7Z"></path><path class="cls-19" d="m768.84,266.48c-14.13-4.69-32.61-12.65-45.61-18.29,6.41-19.89,6.86-38.31,18.2-55.9,10.5-19.79-18.11-32.37-26.88-10.06-2.52,4.79-4.61,9.79-6.52,14.68-6.02,15.78-12.01,32.33-15.95,48.69-1.91,7.87-5.16,18.58,4.13,23.24,17.34,8.72,32.66,9.71,68.23,14.16.13-.9,4-15.53,4.4-16.51Z"></path><path class="cls-5" d="m708.22,266.23c-2.34-1.53-4.55-2.91-5.6-5.5-7.78-19.18,19.02-86.77,19.94-88.41-3.21,1.83-6.08,5.04-8,9.92-2.52,4.79-4.61,9.79-6.52,14.68-6.02,15.78-12.01,32.33-15.95,48.69-1.91,7.87-5.16,18.58,4.13,23.24,17.34,8.72,32.66,9.71,68.23,14.16.05-.33.6-2.52,1.3-5.2-4.39-.51-53.01-8.6-57.53-11.57Z"></path></g><g><path class="cls-30" d="m1137.65,181.78c-3.38,12-7.32,24.05-11.79,35.63-3.71,9.13-7.5,18.99-13.54,26.61-21.15,3.96-43.47,8.27-64.78,4.29l-3.81,12.58c23.88,9.61,50.28,7.65,75.69,7.56,20.79-2.75,41.69-58.29,49.09-76.7l-30.85-9.98Z"></path><path class="cls-4" d="m1137.65,181.78c-3.38,12-7.32,24.05-11.79,35.63-3.71,9.13-7.5,18.99-13.54,26.61-9.05,1.69-18.3,3.45-27.61,4.59-.64,2.37-3.02,4.18-5.48,4.18-7.81,0-15.63.01-23.4.86-2.86.31-5.08-2.31-5.56-4.88-.91-.14-1.83-.29-2.74-.46l-3.81,12.58c23.88,9.61,50.28,7.65,75.69,7.56,20.79-2.75,41.69-58.29,49.09-76.7l-30.85-9.98Z"></path><path class="cls-9" d="m1139.53,177.03c-4.49,8.4-19.67,55.38-25.71,63.01-17.18,2.27-33.19,6.92-53.3,6.88-2.32,6.52-3.38,16.08-2.56,21.06,13.77,1.44,46.43,6.57,66.51,4.48,23.51-2.23,36.63-62.27,44.04-80.68l-28.98-14.74Z"></path><path class="cls-6" d="m1142,178.28c.04.41-.08.83.03,1.22,4.83,17.89-2.51,64.82-3.29,69.65-.87,5.41-4.06,10.63-8.99,13.26-4.72,2.51-10.11,3.16-15.39,3.17-3.64.01-46.57,1.26-56.63-.63.02,1.11.09,2.13.24,3.02,13.77,1.44,46.43,6.57,66.51,4.48,23.51-2.23,36.63-62.27,44.04-80.68l-26.51-13.48Z"></path><g><path class="cls-20" d="m1134.13,385.54s28.35.71,56.03,3.43c14.76,1.45,64.13-4.16,64.13-4.16l-38.57-39.13-81.59,39.86Z"></path><g><g><path class="cls-27" d="m1191.4,400.74c2.72-25.24,7.47-47.61,10.62-66.71,3.85-40-48.58-86.78-55.7-26.95-1.87,15.7-2.79,40.88,3.66,93.66h41.42Z"></path><path class="cls-27" d="m1205.5,400.74h41.78c-5.3-34.69-7.76-61.38-11.61-90.93-2.81-40.64-63.58-19.63-49.93,18.99.9,2.96,9.88,33.05,19.76,71.93Z"></path><path class="cls-29" d="m1250.07,177.46c-2.11-3.71-20.43-20.64-42.75-22.88-7.98-.8-22.86-.29-33.44,1.73-8.88,1.69-30.14,14.81-33.6,20.73-4.49,7.66,1.3,32.66,3.57,43.11,4.05,18.65,1.45,96.81,1.45,96.81,0,0,7.96,6.45,38.11,5.13,39.62-1.74,52.17-12.56,52.17-12.56-1.68-50.15,2.33-80.41,8.25-96.61,4.68-12.81,16.52-17.38,6.25-35.43Z"></path><path class="cls-9" d="m1249.82,173.72c-2.11-3.71-21.98-17.39-43.75-20.25-1.25-.16-14.46,44.58-18.13,69.13-3.88,25.97,3.97,157.99,4.86,173,48.31,0,61.49-10.77,61.49-10.77-1.68-50.15-16.39-155.71-10.47-171.92,4.68-12.81,16.27-21.12,6-39.18Z"></path><path class="cls-3" d="m1244.17,261.2c-.11-1.39-.22-2.76-.32-4.11,0,0,0-.01,0-.02-.1-1.35-.2-2.68-.29-3.99,0,0,0-.02,0-.03-.09-1.31-.18-2.59-.26-3.85,0-.02,0-.04,0-.06-.08-1.26-.16-2.49-.23-3.71,0-.02,0-.04,0-.06-.04-.6-.07-1.2-.1-1.79,0,0,0,0,0,0-.83-14.93-.78-26.16.87-30.68,3.16-8.65,9.07-13.67,10.57-21.41-.32.23-.65.42-.99.57-5.86,2.6-12.07,4.14-18.01,6.47-1.47.67-2.89,1.43-4.23,2.33-.36.33,1.04.92.71,1.27-.01.02-.02.04-.04.06-.03.1-.05.2-.07.3-.18,3.16.22,6.33.54,9.47.32,3.13.33,6.26.61,9.4.3,3.44.76,6.87.88,10.32.06,1.68.04,3.35-.16,5.02-.18,1.54-.33,3.15-.71,4.68-.37,1.53-1.08,2.98-1.71,4.41l.42-1c-1.11,2.43-2.52,4.61-4.67,6.34-2.13,1.71-4.21,3.17-6.7,4.28-8.3,3.71-16.92,5.57-25.92,6.67-2.35.29-4.7.48-7.06.59.21,7.92.52,16.46.91,25.25,13.06-1.34,26.24-1.65,39.28-3.29,4.01-.58,8-1.32,11.94-2.28.28,12.99,2.03,25.91,2.52,38.9.24,6.23.19,12.49-.47,18.7-.6,5.59-1.35,11.34-3.07,16.72-3.08,9.61-8.23,18.18-14.42,26.08-2.53,3.23-5.29,9.28-8.32,12.04,30.56-2.5,38.64-9.97,38.64-9.97-1.04-31.08-7.09-85.29-10.13-123.61,0,0,0,0,0,0Z"></path><path class="cls-9" d="m1163.61,206.12c1.37-26.22,9.13-49.34,8.92-49.3-8.88,1.69-29.54,14.29-33,20.21-4.49,7.66,1.3,32.66,3.57,43.11,4.05,18.65-8.97,168.93-8.97,168.93,0,0,4.8,7.05,28.49,7.05-.31-5.39-.57-160.05.99-189.99Z"></path></g><g><path class="cls-30" d="m1199.01,121.24c-1.71-4.76-13.7-7.11-18.46-5.39-4.06,1.46-6.46,5.51-6,9.62v.11s-.3,27.55-.3,27.55c-.14,1.24.09,2.73.31,6.03.66,10.14,14.89,4.79,14.94,4.75,2.03-1.91,13.23-7.33,12.09-10.86-5.63-17.41-2.57-31.82-2.57-31.82Z"></path><path class="cls-6" d="m1180.56,115.84c-4.06,1.46-6.46,5.51-6,9.62v.11s-.32,29.17-.32,29.17c.02.16.04.31.07.47,16.78-5.92,19.41-16.7,19.9-17.81,1.41-5.19,2.11-8.09,2.98-13.4-.61-2.59-1.01-4.29-1.01-4.29-1.71-4.76-10.87-5.59-15.63-3.87Z"></path><path class="cls-30" d="m1166.56,88.38s-17.4,57.72,2.3,59.35c17.28,1.43,25.74-6.82,25.74-6.82,0,0,24.2-37.47,15.61-48.62-6.71-8.7-43.65-3.91-43.65-3.91Z"></path><path class="cls-32" d="m1194.7,80.8c-10.5-2.39-28.52,2.85-33.85,2.42,0,0-7.3,13.9,8.22,16.19,15.52,2.29,23.21,4.73,22.67,8.43-.54,3.7-2.4,7.83-2.4,7.83l3.4,2.39s6.97-3.01,7.44.47c.63,4.64-1.63,11.1-6.01,11.08,0,0,1.63,2.65,4.19,7.95,0,0,15.87-13.99,15.9-32.07.02-14.98-9.05-22.3-19.54-24.69Z"></path></g></g><path class="cls-6" d="m1174.21,152.32s.19,9.96,5.29,12.69l-6.17,10.34s-7.21-12.68.88-23.03Z"></path><path class="cls-18" d="m1174.21,152.32s.19,9.96,5.29,12.69l-6.08,8s-5.87-11.93.79-20.69Z"></path><path class="cls-6" d="m1179.5,165.01l5.03,11.55c.43-.02,20.12-8.65,21.3-23.23l-5.79-5.85s-6.4,17.4-20.54,17.53Z"></path><path class="cls-18" d="m1179.5,165.01l5.25,9.91c.43-.02,18.91-7.49,21.08-21.59l-5.79-5.85s-6.4,17.4-20.54,17.53Z"></path><path class="cls-6" d="m1174.27,151.96c-2.54.91-6.22,4.34-8.6,7.35-1.69,2.14-5.54,5.21-5.54,5.21,1.14,1.87,2.6,5.2,2.6,5.2l-8.83,7.98s.86,25.51,8.98,59c.06-8.61,2.72-36.37,2.94-40.71.66-12.64,2.53-23,4.23-29.5,1.13-4.34,4.15-13.44,4.22-14.54Z"></path><path class="cls-9" d="m1174.27,151.96c-2.54.91-6.22,4.34-8.6,7.35-1.69,2.14-3.8,5.21-3.8,5.21,1.14,1.87,2.6,5.2,2.6,5.2l-8.83,7.98s-.3,16.22,7.24,59c.06-8.61,2.72-36.37,2.94-40.71.66-12.64,2.53-23,4.23-29.5,1.13-4.34,4.15-13.44,4.22-14.54Z"></path><path class="cls-6" d="m1199.76,145.8s1.91,11.02-1.17,20.7c-6.12,19.22-12.14,51.29-11.41,72.91,0,0,15.31-45.77,27.08-57.89l-4.88-9.53,6.01-4.37s-2.91-11.97-5.74-13.59l-9.89-8.23Z"></path><path class="cls-9" d="m1199.63,145.65s1.91,11.02-1.17,20.7c-6.12,19.22-12.14,51.29-11.41,72.91,0,0,12.32-46.27,24.09-58.39l-4.88-9.53,6.01-4.37s.61-7.45-2.16-12.54l-10.48-8.78Z"></path></g><path class="cls-34" d="m1152.82,253.61l-20.16.4c-.44,0-.81-.34-.82-.79h0c0-.44.34-.81.79-.82l20.16-.4c.44,0,.81.34.82.79h0c0,.44-.34.81-.79.82Z"></path><g><path class="cls-30" d="m1025.5,257.66c-.21,0-.43-.01-.65-.07-6.83-1.77-17.22-2.47-17.34-2.47-1.23-.06-2.18-1.11-2.11-2.33.06-1.23,1.1-2.17,2.33-2.11.52.03,13.36.36,22.12,2.99,1.18.35-3.39,3.96-4.34,4Z"></path><g class="cls-4"><path d="m1006.06,251.3c-.39.38-.65.9-.67,1.49-.06,1.23.89,2.27,2.11,2.33.12,0,10.51.7,17.34,2.47.22.06.44.08.65.07.65-.03,5.53-2.17,5.98-3.5-2.06-1.51-21.34-2.72-25.41-2.87Z"></path></g><path class="cls-30" d="m1056.29,252.06c-.55-4.22-9.66-8.23-15.14-7.87-4.47.29-10.75-2.39-11.41-.84-1.1,2.58.51,5.25,6.29,6.39,3.81.76-3.04,2.44-3.04,2.44-4.57,1.01-13.77.6-13.77.6-6.43-.63-13.55-.1-13.55-.1-1.23,0-2.22.99-2.23,2.22,0,1.23.99,1.97,2.22,1.97.11,0,7.09-.65,13.3-.07l-.64,4.39,11.44,4.45c.6.23,1.24.35,1.88.34,3.45-.05,15.03-.28,18.42-1.26,6.97-2.03,7.21-5.18,6.23-12.66Z"></path><path class="cls-4" d="m1036.47,251c3.77-.52,2.09-2.49,1.84-2.59-2.35-.89-4.24.63-7.29-1.73-.55-.43-1.03-1.03-1.59-2.09-.16,2.15,1.75,4.19,6.6,5.15,1.61.32,1.27.68.44,1.26Z"></path><g class="cls-4"><path d="m1027.41,256.85c-6.07-2.85-18.38-3.61-18.89-3.66-1.22-.11-2.31.79-2.42,2.02-.06.62.15,1.21.52,1.65.66-.12,1.33-.19,1.98-.19,2.32,0,4.42.7,6.16,1.88,3.35.54,7.36,1.3,10.57,2.28.22.07.43.1.65.1.95,0,2.54-3.55,1.42-4.07Z"></path></g><path class="cls-30" d="m1026.63,261.45c-.21,0-.43-.03-.65-.1-6.75-2.05-17.1-3.18-17.23-3.19-1.22-.11-2.13-1.19-2.02-2.42.11-1.22,1.19-2.13,2.42-2.02.52.05,12.75,1.14,19.94,3.32,1.18.36-1.51,4.4-2.47,4.4Z"></path><g class="cls-4"><path d="m1025.53,261.22c.15.04.3.09.45.13.22.07.43.1.65.1.04,0,.08,0,.12-.02-.41-.07-.81-.14-1.22-.21Z"></path></g><g class="cls-4"><path d="m1030.58,259.27c-6.99-2.13-17.07-4.19-17.18-4.22-1.18-.33-2.41.36-2.75,1.54-.19.67-.05,1.36.33,1.89.16.02.32.04.48.07,2.03.26,4.04.56,6.03,1.13,2.03.58,3.73,1.65,5.06,3.05,1.97.63,4,1.27,5.87,1.84.22.07.43.1.65.1.95,0,1.84-.62,2.13-1.58.36-1.18.56-3.46-.61-3.82Z"></path></g><path class="cls-30" d="m1029.71,265.24c-.21,0-.43-.03-.65-.1-6.95-2.11-16.11-5.2-16.22-5.23-1.18-.33-1.88-1.56-1.54-2.75.33-1.18,1.56-1.88,2.75-1.54.11.03,9.33,2.43,18.49,3.98,1.21.21-.34,2.88-.69,4.05-.29.96-1.18,1.58-2.13,1.58Z"></path><path class="cls-4" d="m1056.48,253.64c-.53.9-1.18,1.75-1.98,2.53-2.13,2.08-4.47,3.3-7.29,4.22-1.94.63-11.4,2.4-14.59,1.95-.26-.04-4.1-.93-5.63-1.23-3.14-.8-8.68-1.67-8.8-1.7-2.33-.56-4.64-1.5-6.74-2.64-.06.13-.12.26-.16.4-.33,1.18.36,2.41,1.54,2.75.1.03,7.01,2.36,13.38,4.35l3.36,1.31c.72.28,1.48.42,2.25.41,3.67-.05,14.9-.3,18.23-1.26,6.46-1.88,7.13-4.73,6.42-11.08Z"></path></g><path class="cls-27" d="m1115.44,253.8l56.52-1.44c.43-.01.85.15,1.17.45l33.73,31.71c1.39,1.16.24,3.02-.76,3.02l-50.82-1.11c-.61,0-1.19-.2-1.67-.58l-38.75-29.46c-.59-.47-.43-2.69.58-2.58Z"></path><path class="cls-33" d="m1115.63,254.94l55.87-.98c.43-.01.85.15,1.17.45l34.48,31.21c.73.68.24,1.91-.76,1.91h-50.82c-.61,0-1.19-.2-1.67-.58l-38.75-30.57c-.59-.47-.28-1.42.48-1.44Z"></path><path class="cls-30" d="m1273.84,252.95c-1.74-25.11-13.41-48.94-22.17-72.18l-26.73,13.77c8.94,18.1,17.84,37.01,22.37,56.63-12.77,5.76-29.63,9.88-43.89,11.94-4.56-1.48-14.39-4.66-15.93-4.67-2.04-.02-7.2,1.12-7.2,1.12l5.05,4.81c-3.43,1.2-11.07.95-11.07.95-3.95.05-7.9.09-11.85.11h0c-.95,0-1.75.75-1.82,1.72-.07,1.01.7,1.89,1.71,1.95.94.06,1.88.14,2.82.22-.78.04-1.48.58-1.68,1.38-.25.98.34,1.98,1.33,2.23,0,0,7.01,1.79,9.34,2.37,0,0,.25.02.66.05.29.86,1.19,3.11,2.69,3.58,1.01.32,3.94,1.23,3.94,1.23,0,0,3.7,3.75,4.96,3.68,1.15-.07,17.57-5.91,20.16-6.83,19.9.12,39.46-1.84,57.19-6.13,9.12-1.81,10.63-9.87,10.12-17.95Zm-108.09,16.43c2.8.26,5.61.56,8.41.73,0,0,3.82.28,7.17.52-.02.11-.03.22-.05.33-2.59-.04-5.19-.12-6.62-.25-2.07-.19-7.77-1.13-8.91-1.33Z"></path><path class="cls-4" d="m1184.46,279.45c-2.98-.59-6.16-.72-8.85-2.27,0,0,0,0,0,0,.46.78,1.08,1.52,1.87,1.77,1.01.32,3.94,1.23,3.94,1.23,0,0,4.19-.03,4.66-.08.11-.01.19-.02.25-.03.04,0,.09-.02.14-.02.22-.04.44-.07.66-.11-.89-.14-1.79-.31-2.68-.49Z"></path><path class="cls-4" d="m1273.84,252.95c-1.74-25.11-13.41-48.94-22.17-72.18l-26.73,13.77c8.94,18.1,17.84,37.01,22.37,56.63-11.42,5.15-26.1,8.99-39.28,11.22-.31,2.48-.93,4.87-2.16,7.1-.47.85-1.03,1.64-1.67,2.38-.27.74-.7,1.4-1.3,1.91-2.98,2.53-6.24,4.08-9.81,5.59-3.22,1.35-6.44,2.28-9.97,2.33-.05,0-.09,0-.14,0,1.16,1.04,2.66,2.23,3.37,2.18,1.15-.07,17.57-5.91,20.16-6.83,19.9.12,39.46-1.84,57.19-6.13,9.12-1.81,10.63-9.87,10.12-17.95Z"></path><path class="cls-4" d="m1174.78,275.37c.04.12,5.72.64,8.18.73-.38-.12-.76-.24-1.14-.37-1.82-.64-13.63-2.76-17.48-4.09-.34-.12-.66-.26-.96-.42.02.8.57,1.52,1.38,1.72,0,0,7.01,1.79,9.34,2.37,0,0,.25.02.66.05Z"></path><path class="cls-4" d="m1165.75,269.38c.19.02.38.04.57.05h1.07-1.07c2.61.25,5.23.52,7.84.67,0,0,3.57.26,6.83.5-.09-.05-.17-.11-.26-.16-.21-.12-.42-.24-.64-.35-.1-.05-.17-.08-.23-.11-.37-.1-.81-.19-.89-.21-.06-.01-.11-.02-.15-.03-.15-.01-.3-.03-.45-.03-5.18-.38-10.36-1.12-15.56-1.04-.65,0-1.27-.1-1.84-.3.31.41.79.69,1.34.73.94.06,1.88.14,2.82.22-.18.01-.36.05-.53.11h1.47c-.13-.02-.24-.04-.32-.05Z"></path><path class="cls-9" d="m1277.08,255.7c-1.74-25.11-18.71-64.24-25.15-77.56l-28.5,15.64c8.94,18.1,15.59,34.76,20.13,54.39-11.04,4.16-27.23,11.07-38.41,13.37,0,5.53,1.42,15.91,2.19,19.34,21.22-1.89,44.54-3.57,59.63-7.23,9.12-1.81,10.63-9.87,10.12-17.95Z"></path><path class="cls-6" d="m1277.08,255.7c-1.29-18.62-11.33-46.36-18.16-63.34.39,1.27,11.32,39.66,12.28,46.04.72,4.8,1.08,9.25,0,14.04-.89,3.98-3.29,8.04-6.44,10.64-.05.04-.16.13-.16.13-16.89,8-56.5,10.98-57.86,11.03-.16.03-.32.05-.48.08.38,2.78.78,5.2,1.08,6.55,21.22-1.89,44.54-3.57,59.63-7.23,9.12-1.81,10.63-9.87,10.12-17.95Z"></path><g><path class="cls-33" d="m1201.07,173.31l1.08.37s-1.85,5.01-2.57,11.77c-.66,6.2-.49,15.23,4.08,23.02.27.47.7.77,1.31.93,3.17.84,9.37-2.55,9.43-2.58l.58.95c-.27.15-6.68,3.65-10.31,2.69-.91-.24-1.58-.73-2.01-1.46-4.72-8.05-4.9-17.33-4.22-23.7.74-6.88,2.61-11.95,2.63-12Z"></path><path class="cls-16" d="m1216.18,205.26c.56-.3,1.28-.11,1.59.43.32.54.12,1.22-.44,1.52l-1.88,1.01c-.56.3-1.28.11-1.59-.43-.32-.54-.12-1.22.44-1.52l1.88-1.01Z"></path><path class="cls-33" d="m1213.07,209.73c.62-.11,1.07-.38,1.38-.83,5.17-7.41,6.06-16.39,5.89-22.63-.18-6.79-1.62-11.88-1.63-11.93l1.11-.29c.01.05,1.48,5.25,1.67,12.17.18,6.4-.74,15.64-6.08,23.29-.48.69-1.2,1.13-2.12,1.29-3.69.67-9.81-3.32-10.07-3.49l.65-.9c.06.04,5.98,3.9,9.2,3.32Z"></path><path class="cls-16" d="m1202.22,204.71l1.8,1.15c.54.34.68,1.04.32,1.55-.36.51-1.09.65-1.62.3l-1.8-1.15c-.54-.35-.68-1.04-.32-1.55.36-.51,1.09-.65,1.62-.3Z"></path><path class="cls-19" d="m1210.84,167.09c5.92.23,10.59,4.25,10.33,10.66l-2.35-.09c.19-4.89-3.45-8.15-8.07-8.33-4.63-.18-8.51,2.78-8.71,7.66l-2.35-.09c.25-6.41,5.22-10.05,11.14-9.81Z"></path></g><g><path class="cls-19" d="m1174.28,150.18c-4.67,2.32-8.98,6.02-12.13,10.77-2.97,4.48-5.23,10.01-6.72,16.44-2.53,10.9-1.97,20.78-1.96,20.88l1.54-.09c0-.1-.56-9.78,1.93-20.47,1.45-6.24,3.58-11.01,6.44-15.33,2.83-4.27,6.76-8.21,10.88-10.41l.02-1.78Z"></path><path class="cls-22" d="m1154.95,195.3c-.51-.01-1.01-.02-1.52-.03,0,0-.01,0-.02,0,0,1.85.05,2.95.06,2.98l1.54-.09s-.06-1.09-.05-2.86Z"></path><path class="cls-19" d="m1210.26,167.82c.32,0,.64.03.94.08-.21-6.69-1.73-15.1-7.21-20.54-1.62-1.6-3.35-2.73-4.66-3.36,0,0,.24,1.28.38,2,1.01.58,2.14,1.39,3.27,2.52,4.11,4.13,6.4,10.78,6.68,19.33.2-.02.4-.04.6-.04Z"></path><g><path class="cls-16" d="m1149.19,203.65c0,3.19,2.57,5.79,5.76,5.8,3.18.01,5.78-2.57,5.79-5.76,0-3.19-2.57-5.79-5.76-5.8-3.19-.01-5.79,2.57-5.8,5.76Zm1.27,0c0-2.48,2.03-4.49,4.52-4.48,2.48,0,4.5,2.03,4.49,4.51,0,2.48-2.04,4.49-4.52,4.48-2.49,0-4.5-2.03-4.49-4.51Z"></path><path class="cls-22" d="m1154.24,198.21c2.84,0,5.13,2.32,5.13,5.16,0,2.84-2.32,5.13-5.16,5.12-2.84,0-5.13-2.32-5.12-5.16,0-2.84,2.32-5.13,5.16-5.12Z"></path><path class="cls-17" d="m1153.9,199.49c1.9,0,3.44,1.55,3.43,3.45,0,1.9-1.55,3.44-3.46,3.43-1.9,0-3.44-1.55-3.43-3.45,0-1.9,1.55-3.44,3.46-3.43Z"></path><path class="cls-16" d="m1156.85,201.09c-.08.26-.19.51-.31.75.26.41.4.88.4,1.39,0,1.51-1.33,2.74-2.95,2.73-.88,0-1.68-.37-2.21-.95-.11,0-.22.01-.33.01-.19,0-.37,0-.55-.03.64.99,1.79,1.66,3.1,1.66,2.01,0,3.64-1.53,3.65-3.43,0-.81-.29-1.55-.79-2.14Z"></path><path class="cls-33" d="m1150.1,202.89c0,1.9,1.62,3.45,3.63,3.46,2.01,0,3.64-1.53,3.65-3.43,0-1.9-1.62-3.45-3.63-3.45-2.01,0-3.65,1.53-3.65,3.43Zm.69,0c0-1.51,1.33-2.74,2.95-2.73,1.62,0,2.94,1.24,2.94,2.75,0,1.51-1.33,2.74-2.95,2.73-1.62,0-2.94-1.24-2.94-2.76Z"></path><path class="cls-33" d="m1148.45,203.33c0,3.19,2.57,5.79,5.76,5.8,3.18.01,5.78-2.57,5.79-5.76,0-3.19-2.57-5.79-5.76-5.8-3.19-.01-5.79,2.57-5.8,5.76Zm.76,0c0-2.76,2.26-5,5.03-4.99,2.76,0,5.01,2.26,5,5.02,0,2.76-2.26,5-5.03,4.99-2.77,0-5.01-2.26-5-5.02Z"></path></g></g></g><g><rect class="cls-8" x="846.23" y="49.67" width="68.43" height="68.43" rx="34.21" ry="34.21"></rect><path class="cls-38" d="m893.13,84.66c-2.3,0-4.18,1.86-4.18,4.14,0,1.89,1.3,3.54,3.12,4.01v6.22c0,2.79-2.28,5.06-5.08,5.06h-5.68c-2.8,0-5.08-2.27-5.08-5.06v-9.51c2.09-.34,4.05-1.66,5.69-3.81,1.43-1.88,2.13-3.73,2.14-3.74l.08-.22c.03-.07.03-.16,0-.23-.03-.07-.09-.13-.17-.16h-.02c.65-1.49,1.2-3.03,1.63-4.58.99-3.53,1.79-8.79.01-13.78-.2-.55-.58-.96-1.15-1.23-1.49-.7-3.97-.1-5.41.35-.26-.14-.57-.17-.85-.07l-1.1.39c-.27.1-.48.29-.59.54-.12.25-.14.54-.04.8.19.53.8.82,1.34.63l1.1-.39c.25-.09.46-.27.58-.51,1.98-.61,3.6-.76,4.35-.42.2.1.33.22.39.4,1.65,4.63.89,9.56-.04,12.89-.52,1.85-1.13,3.41-1.6,4.46l-.14-.05c-.16-.06-.33.02-.39.17l-.08.22c-.02.06-2.47,6.22-6.86,6.22s-6.84-6.15-6.86-6.22l-.08-.22c-.06-.16-.23-.24-.39-.17l-.14.05c-.47-1.06-1.09-2.62-1.6-4.45-.93-3.33-1.69-8.26-.04-12.89.06-.18.19-.3.39-.4.76-.35,2.38-.19,4.35.42.12.24.33.42.59.52l1.1.39c.54.19,1.15-.11,1.34-.63.09-.26.08-.55-.04-.8-.12-.25-.33-.45-.6-.54l-1.09-.39c-.29-.1-.59-.08-.86.07-1.44-.45-3.92-1.04-5.41-.35-.57.26-.95.68-1.15,1.23-1.78,4.99-.97,10.25.01,13.78.52,1.87,1.16,3.47,1.64,4.57h-.03c-.07.04-.14.1-.17.17-.03.07-.03.16,0,.23l.08.22c.03.08.73,1.9,2.14,3.74,1.64,2.16,3.61,3.47,5.69,3.81v9.51c0,4.02,3.28,7.29,7.32,7.29h5.68c4.04,0,7.32-3.27,7.32-7.29v-6.26c1.77-.52,2.99-2.12,2.99-3.97,0-2.28-1.87-4.14-4.18-4.14Zm1.68,4.14c0,.84-.75,1.52-1.68,1.52s-1.67-.68-1.67-1.52.75-1.52,1.67-1.52,1.68.68,1.68,1.52Z"></path></g><g><rect class="cls-8" x="1001.66" y="40.99" width="51.06" height="51.06" rx="25.53" ry="25.53"></rect><g><path class="cls-39" d="m1015.61,66.52c.88-.03,1.75-.05,2.63-.07l2.63-.06,2.63-.05,2.63-.04,1.31-.02h.95s.13-.35.13-.35l.26-.66.26-.66c.09-.22.17-.44.26-.66l.53-1.32.54-1.31.76-1.87.39,1.98.13.66.13.66.25,1.31.13.66.12.66.24,1.31.12.66.12.66.24,1.31.16.91c.12-.3.25-.6.37-.91l.26-.64.26-.63.53-1.27.09-.23h4.21s2.23,0,2.23,0c.69-1.5,1.11-3.03,1.11-4.55,0-4.54-3.36-8.21-7.51-8.21s-7.51,3.68-7.51,8.21c0-4.54-3.36-8.21-7.51-8.21s-7.51,3.68-7.51,8.21c0,1.53.42,3.07,1.12,4.57l1.01-.03,1.31-.04Z"></path><path class="cls-43" d="m1035.16,68.45l-.37,1.08-.22.65-.23.65c-.15.43-.3.87-.45,1.3l-.46,1.3-.58,1.65-.38-1.73c-.1-.44-.19-.87-.28-1.31l-.28-1.31-.27-1.31-.13-.65-.13-.65-.26-1.31-.13-.65-.13-.66-.13-.67-.33.77c-.09.22-.18.44-.28.65l-.28.65-.28.65-.29.65-.15.33h-.35s-1.31-.02-1.31-.02l-1.31-.02-2.63-.04-2.63-.05-2.63-.06c-.88-.02-1.75-.04-2.63-.07l-1.31-.04-.8-.03c3.67,7.33,13.7,13.75,13.7,13.75,0,0,10-6.4,13.69-13.72l-1.98.07-3.74.13Z"></path></g></g><g class="cls-47"><path class="cls-9" d="m1073.16,47.19c-.25-.25-.4-.59-.4-.97,0-12.9-10.48-23.4-23.37-23.4-.76,0-1.37-.62-1.37-1.37,0-.76.61-1.37,1.37-1.37,14.4,0,26.11,11.73,26.11,26.15,0,.76-.61,1.37-1.37,1.37-.38,0-.72-.15-.97-.4Z"></path><path class="cls-9" d="m1065.12,47.75c-.25-.25-.4-.59-.4-.97,0-8.77-7.12-15.9-15.88-15.9-.76,0-1.37-.62-1.37-1.37,0-.76.61-1.37,1.37-1.37,10.27,0,18.63,8.37,18.63,18.65,0,.76-.61,1.37-1.37,1.37-.38,0-.72-.15-.97-.4Z"></path><path class="cls-9" d="m1056.89,47.19c-.25-.25-.4-.59-.4-.97,0-3.92-3.18-7.1-7.09-7.1-.76,0-1.37-.62-1.37-1.37,0-.76.61-1.37,1.37-1.37,5.42,0,9.84,4.42,9.84,9.85,0,.76-.61,1.37-1.37,1.37-.38,0-.72-.15-.97-.4Z"></path></g><g><rect class="cls-8" x="926.6" y="19.01" width="54.5" height="54.5" rx="27.25" ry="27.25" transform="translate(1907.69 92.52) rotate(180)"></rect><g><path class="cls-41" d="m942.53,61.36h22.63v-30.21h-22.63v30.21Z"></path><g><path class="cls-9" d="m959.58,36.39h-11.47c-.5,0-.9.41-.9.9s.41.9.9.9h11.47c.5,0,.9-.41.9-.9s-.41-.9-.9-.9Z"></path><path class="cls-9" d="m959.58,40.87h-11.47c-.5,0-.9.41-.9.9s.41.9.9.9h11.47c.5,0,.9-.41.9-.9s-.41-.9-.9-.9Z"></path><path class="cls-9" d="m959.58,45.35h-11.47c-.5,0-.9.4-.9.9s.41.9.9.9h11.47c.5,0,.9-.4.9-.9s-.41-.9-.9-.9Z"></path><path class="cls-9" d="m959.58,49.84h-11.47c-.5,0-.9.4-.9.9s.41.9.9.9h11.47c.5,0,.9-.41.9-.9s-.41-.9-.9-.9Z"></path><path class="cls-9" d="m955.3,54.32h-7.19c-.5,0-.9.41-.9.9s.41.9.9.9h7.19c.5,0,.9-.41.9-.9s-.41-.9-.9-.9Z"></path></g></g></g><g><g><path class="cls-24" d="m961.42,135.59c0-.66-.54-1.2-1.2-1.2s-1.2.54-1.2,1.2c0,1.4-.16,2.77-.45,4.08h-9.08c-.29-1.31-.45-2.68-.45-4.08,0-.66-.54-1.2-1.2-1.2s-1.2.54-1.2,1.2c0,4.55,1.43,8.84,4.03,12.08l1.82,2.27-1.77,2.21c-5.37,6.7-5.35,17.56.05,24.22l1.71,2.11-1.59,1.96c-5.48,6.75-5.44,17.69.08,24.38l1.5,1.82-1.55,1.88c-2.73,3.32-4.21,7.75-4.16,12.48,0,.66.55,1.2,1.21,1.18.66,0,1.19-.55,1.18-1.21-.01-1.12.08-2.23.26-3.31h9.22c.16.97.25,1.98.25,3,0,.66.54,1.19,1.2,1.19h0c.66,0,1.19-.54,1.19-1.2-.02-4.59-1.5-8.9-4.16-12.13l-1.55-1.88,1.5-1.82c5.52-6.7,5.55-17.64.08-24.38l-1.59-1.96,1.71-2.11c5.4-6.66,5.43-17.53.05-24.22l-1.77-2.21,1.82-2.27c2.6-3.24,4.03-7.53,4.03-12.08Zm-3.28,5.68c-.24.73-.53,1.44-.86,2.11h-6.5c-.33-.68-.62-1.38-.86-2.11h8.21Zm.81,24.23h-9.82c-.08-1.14-.05-2.28.08-3.41h9.67c.13,1.13.16,2.28.08,3.41Zm-9.65,1.6h9.47c-.18,1.17-.48,2.32-.88,3.41h-7.7c-.41-1.1-.7-2.25-.88-3.41Zm9.31-6.61h-9.15c.24-1.18.6-2.32,1.08-3.41h6.99c.48,1.09.84,2.24,1.08,3.41Zm-1.14,39.14h-6.86c-.47-1.09-.82-2.24-1.06-3.41h8.98c-.24,1.18-.59,2.32-1.06,3.41Zm-8.17-5.01c-.12-1.13-.15-2.28-.06-3.41h9.59c.08,1.14.06,2.28-.06,3.41h-9.47Zm9.34-5.01h-9.21c.19-1.17.5-2.32.91-3.41h7.38c.42,1.1.72,2.24.91,3.41Zm-8.87,26.48c.28-1.06.65-2.07,1.1-3.02h6.32c.46.95.83,1.97,1.11,3.02h-8.53Zm5.52-6.03c.37.44.7.92,1.02,1.41h-4.54c.31-.49.65-.96,1.01-1.41l1.26-1.52,1.26,1.52Zm-2.46-6.75c-.54-.65-1.01-1.35-1.43-2.08h5.27c-.42.73-.89,1.43-1.43,2.08l-1.21,1.46-1.21-1.46Zm2.48-21.35c.66.82,1.23,1.71,1.71,2.64h-5.96c.48-.94,1.05-1.83,1.71-2.64l1.27-1.57,1.27,1.57Zm-2.67-7.09c-.69-.85-1.28-1.78-1.76-2.76h6.32c-.49.98-1.08,1.91-1.76,2.76l-1.4,1.72-1.4-1.72Zm2.84-21.22c.46.58.88,1.19,1.25,1.83h-5.38c.37-.64.79-1.25,1.25-1.83l1.44-1.8,1.44,1.8Zm-2.93-7.48c-.31-.38-.59-.78-.86-1.19h4.7c-.27.41-.55.81-.86,1.19l-1.49,1.86-1.49-1.86Z"></path><polygon class="cls-25" points="942.35 203.01 941.15 203.01 941.15 206.99 945.06 206.99 945.06 205.79 942.35 205.79 942.35 203.01"></polygon><polygon class="cls-25" points="965.72 205.75 962.94 205.75 962.94 206.96 966.93 206.96 966.93 203.04 965.72 203.04 965.72 205.75"></polygon><polygon class="cls-25" points="965.69 179.7 966.89 179.7 966.89 175.72 962.98 175.72 962.98 176.92 965.69 176.92 965.69 179.7"></polygon><polygon class="cls-25" points="941.15 179.63 942.35 179.63 942.35 176.92 945.13 176.92 945.13 175.72 941.15 175.72 941.15 179.63"></polygon><rect class="cls-24" x="971.01" y="204.58" width="40.46" height="2.47"></rect><rect class="cls-25" x="971.01" y="175.63" width="40.46" height="2.47"></rect><rect class="cls-24" x="971.01" y="199.29" width="40.46" height="2.47"></rect><rect class="cls-24" x="971.01" y="193.99" width="40.46" height="2.47"></rect></g><g><path class="cls-14" d="m1081.63,157.81c4.76,0,8.61-3.86,8.61-8.61s-3.86-8.61-8.61-8.61c-4.5,0-8.19,3.45-8.58,7.84h-25.01v1.54h25.01c.39,4.4,4.08,7.84,8.58,7.84Z"></path><path class="cls-25" d="m1081.63,168.67c-4.5,0-8.19,3.45-8.58,7.84h-19.04v1.54h19.04c.39,4.4,4.08,7.84,8.58,7.84,4.76,0,8.61-3.86,8.61-8.61s-3.86-8.61-8.61-8.61Z"></path><path class="cls-26" d="m1081.63,196.75c-4.5,0-8.19,3.45-8.58,7.84h-27.55v1.54h27.55c.39,4.4,4.08,7.84,8.58,7.84,4.76,0,8.61-3.86,8.61-8.61s-3.86-8.61-8.61-8.61Z"></path></g><path class="cls-25" d="m1008.61,134.81h-38.41v21.84h39.95v-21.84h-1.54Zm0,20.4h-36.94v-7.82h3.16l1.49-4.31,2.44,10.37,2.06-7.08.5,1.02h5.79l1.49-4.31,2.44,10.37,2.06-7.08.5,1.02h5.79l1.49-4.31,2.44,10.37,2.06-7.08.5,1.02h2.71v7.82Zm0-9.26h-1.78l-1.77-3.65-1.57,5.37-2.32-9.87-2.82,8.14h-3.8l-1.77-3.65-1.57,5.37-2.32-9.87-2.82,8.14h-3.8l-1.77-3.65-1.57,5.37-2.32-9.87-2.82,8.14h-2.1v-9.7h36.94v9.7Z"></path><g><path class="cls-24" d="m1055.96,178.32c-.01-.44-.03-.98-.05-1.59-.03-.62-.03-1.31-.08-2.07-.05-.76-.11-1.58-.16-2.45-.03-.44-.06-.88-.09-1.34-.04-.46-.09-.92-.14-1.4-.11-.95-.19-1.93-.32-2.93-.14-1-.29-2.02-.44-3.03-.19-1.02-.39-2.04-.58-3.04-.25-1-.45-1.99-.72-2.94-.28-.95-.53-1.88-.86-2.75-.16-.44-.29-.86-.47-1.28-.18-.41-.34-.81-.51-1.19-.16-.38-.37-.75-.54-1.1-.09-.17-.18-.34-.26-.51-.1-.17-.19-.33-.29-.48-.35-.62-.75-1.17-1.1-1.62-.19-.23-.35-.43-.52-.61-.19-.19-.34-.35-.47-.48-.21-.19-.38-.32-.5-.41-.05-.04-.08-.06-.08-.06-.05-.04-.11-.08-.16-.11-.48-.32-1.92-.63-2.11-.7,0,0-3.55-.89-7.16-.92-3.6.03-7.16.92-7.16.92-.19.07-1.63.39-2.11.7-.05.03-.11.08-.16.11,0,0-.03.02-.08.06-.12.09-.29.22-.5.41-.13.13-.29.29-.47.48-.16.18-.33.38-.52.61-.35.45-.74,1-1.1,1.62-.09.16-.19.32-.29.48-.08.16-.17.33-.26.51-.17.35-.38.71-.54,1.1-.16.38-.33.78-.51,1.19-.18.41-.31.84-.47,1.28-.33.87-.58,1.8-.86,2.75-.27.95-.48,1.94-.72,2.94-.19,1-.38,2.02-.58,3.04-.15,1.02-.29,2.03-.44,3.03-.13,1-.21,1.98-.32,2.93-.05.48-.1.94-.14,1.4-.03.46-.06.9-.09,1.34-.06.87-.11,1.69-.16,2.45-.05.76-.05,1.45-.08,2.07-.02.62-.04,1.15-.05,1.59-.03.88-.05,1.39-.05,1.39-.03,1.04.8,1.91,1.87,1.95,1.02.03,1.89-.72,1.99-1.69v-.06s.06-.49.14-1.35c.04-.43.1-.95.16-1.55.07-.6.12-1.27.21-2,.1-.73.21-1.52.32-2.36.06-.42.11-.85.17-1.29.06-.44.15-.88.22-1.33.16-.9.3-1.84.49-2.78.2-.93.4-1.88.61-2.83.24-.93.49-1.86.72-2.78.29-.89.53-1.79.83-2.62.12-.31.23-.62.34-.93.38,3.05.75,6.34.84,8.07.15,2.74,0,9.78-.06,12.75,0,.06,0,.12-.01.18,0,0,0,.19-.01.54,0,.08,0,.18,0,.28,0,.23,0,.36,0,.36h0c0,.21,0,.45,0,.72,0,1.15.04,2.78.1,4.72.06,1.94.16,4.19.28,6.59.07,1.2.13,2.45.2,3.71.08,1.26.16,2.54.24,3.82.7,10.19,1.39,20.37,1.39,20.37h0c.08,1.19,1.13,2.08,2.34,2,1.16-.07,2.04-1.01,2.06-2.12,0,0,.09-10.21.19-20.42.02-1.27.04-2.54.06-3.79.03-1.25.06-2.47.08-3.66.06-2.38.14-4.59.22-6.48.08-1.89.18-3.45.25-4.53.03-.37.05-.69.08-.94h2.62c.02.25.05.57.08.94.08,1.08.17,2.64.25,4.53.08,1.89.16,4.1.22,6.48.03,1.19.05,2.41.08,3.66.02,1.25.04,2.52.06,3.79.09,10.21.19,20.42.19,20.42.01,1.11.9,2.05,2.06,2.12,1.21.08,2.26-.82,2.34-2h0s.7-10.19,1.39-20.38c.08-1.28.16-2.56.24-3.82.07-1.26.14-2.51.2-3.71.12-2.41.22-4.66.28-6.59.06-1.94.09-3.56.1-4.72,0-.27,0-.51,0-.72h0s0-.13,0-.36c0-.1,0-.2,0-.28,0-.35-.01-.54-.01-.54,0-.06,0-.12-.01-.18-.07-2.97-.21-10-.06-12.75.09-1.72.47-5.01.84-8.07.11.3.22.61.34.93.3.83.55,1.73.83,2.62.24.92.48,1.85.72,2.78.2.95.41,1.9.61,2.83.19.94.33,1.88.49,2.78.08.45.16.89.22,1.33.06.44.12.87.17,1.29.11.84.22,1.63.32,2.36.09.73.15,1.41.21,2,.06.6.11,1.12.16,1.55.09.86.14,1.35.14,1.35v.06c.11.98.97,1.73,2,1.69,1.07-.03,1.91-.9,1.87-1.95,0,0-.02-.5-.05-1.39Z"></path><ellipse class="cls-42" cx="1038.36" cy="138.11" rx="5.91" ry="5.75"></ellipse></g></g><g class="cls-46"><path class="cls-13" d="m1115.92,85.6c-1.94,0-3.51,1.57-3.51,3.51s1.57,3.51,3.51,3.51,3.51-1.57,3.51-3.51-1.57-3.51-3.51-3.51Z"></path><path class="cls-11" d="m1103.87,85.6c-1.94,0-3.51,1.57-3.51,3.51s1.57,3.51,3.51,3.51,3.51-1.57,3.51-3.51-1.57-3.51-3.51-3.51Z"></path><path class="cls-9" d="m1091.82,85.6c-1.94,0-3.51,1.57-3.51,3.51s1.57,3.51,3.51,3.51,3.51-1.57,3.51-3.51-1.57-3.51-3.51-3.51Z"></path></g><g class="cls-46"><path class="cls-13" d="m946.07,250.58c-1.94,0-3.51,1.57-3.51,3.51s1.57,3.51,3.51,3.51,3.51-1.57,3.51-3.51-1.57-3.51-3.51-3.51Z"></path><circle class="cls-11" cx="934.01" cy="254.09" r="3.51" transform="translate(614.36 1167.74) rotate(-85.94)"></circle><path class="cls-9" d="m921.96,250.58c-1.94,0-3.51,1.57-3.51,3.51s1.57,3.51,3.51,3.51,3.51-1.57,3.51-3.51-1.57-3.51-3.51-3.51Z"></path></g><g class="cls-46"><path class="cls-13" d="m831.84,45.36c1.94,0,3.51-1.57,3.51-3.51s-1.57-3.51-3.51-3.51-3.51,1.57-3.51,3.51,1.57,3.51,3.51,3.51Z"></path><path class="cls-11" d="m843.89,45.36c1.94,0,3.51-1.57,3.51-3.51s-1.57-3.51-3.51-3.51-3.51,1.57-3.51,3.51,1.57,3.51,3.51,3.51Z"></path><path class="cls-9" d="m855.95,45.36c1.94,0,3.51-1.57,3.51-3.51s-1.57-3.51-3.51-3.51-3.51,1.57-3.51,3.51,1.57,3.51,3.51,3.51Z"></path></g><path class="cls-9" d="m867.51,257.45c-2.32,0-4.2,1.88-4.2,4.2,0,.93.31,1.78.83,2.48l-7.84,12.05c-.29-.06-.59-.1-.91-.1s-.6.04-.89.1l-7.75-12.03c.52-.7.84-1.56.84-2.5,0-2.32-1.88-4.2-4.2-4.2s-4.2,1.88-4.2,4.2c0,.93.31,1.78.83,2.48l-7.84,12.05c-.29-.06-.59-.1-.91-.1-2.32,0-4.2,1.88-4.2,4.2s1.88,4.2,4.2,4.2,4.2-1.88,4.2-4.2c0-.93-.31-1.78-.83-2.48l7.84-12.05c.29.06.59.1.91.1s.6-.04.89-.1l7.75,12.03c-.52.7-.84,1.56-.84,2.5,0,2.32,1.88,4.2,4.2,4.2s4.2-1.88,4.2-4.2c0-.93-.31-1.78-.83-2.48l7.84-12.05c.29.06.59.1.91.1,2.32,0,4.2-1.88,4.2-4.2s-1.88-4.2-4.2-4.2Z"></path><g><circle class="cls-12" cx="899.38" cy="28.17" r="13.87"></circle><path class="cls-9" d="m905.51,26.76h-4.71v-4.71c0-.78-.63-1.41-1.41-1.41s-1.41.63-1.41,1.41v4.71h-4.71c-.78,0-1.41.63-1.41,1.41s.63,1.41,1.41,1.41h4.71v4.71c0,.78.63,1.41,1.41,1.41s1.41-.63,1.41-1.41v-4.71h4.71c.78,0,1.41-.63,1.41-1.41s-.63-1.41-1.41-1.41Z"></path></g></g></g></g></g></g></svg>